<?xml version="1.0" encoding="UTF-8" standalone="no"?>
<svg
   version="1.1"
   width="600mm"
   height="300mm"
   viewBox="0 0 1700.7908 850.39473"
   id="svg25"
   sodipodi:docname="01.svg"
   xml:space="preserve"
   inkscape:version="1.4 (86a8ad7, 2024-10-11)"
   xmlns:inkscape="http://www.inkscape.org/namespaces/inkscape"
   xmlns:sodipodi="http://sodipodi.sourceforge.net/DTD/sodipodi-0.dtd"
   xmlns="http://www.w3.org/2000/svg"
   xmlns:svg="http://www.w3.org/2000/svg"><defs
     id="defs25" /><sodipodi:namedview
     id="namedview25"
     pagecolor="#ffffff"
     bordercolor="#000000"
     borderopacity="0.25"
     inkscape:showpageshadow="2"
     inkscape:pageopacity="0.0"
     inkscape:pagecheckerboard="0"
     inkscape:deskcolor="#d1d1d1"
     inkscape:document-units="cm"
     inkscape:zoom="0.51981332"
     inkscape:cx="970.54073"
     inkscape:cy="1151.3749"
     inkscape:window-width="2560"
     inkscape:window-height="1369"
     inkscape:window-x="-8"
     inkscape:window-y="-8"
     inkscape:window-maximized="1"
     inkscape:current-layer="svg25"><inkscape:page
       x="0"
       y="0"
       width="1700.7908"
       height="850.39471"
       id="page25"
       margin="0"
       bleed="0" /><inkscape:page
       x="-2.0404677"
       y="877.40039"
       width="1700.7908"
       height="850.39471"
       id="page26"
       margin="0"
       bleed="0" /></sodipodi:namedview><path
     d="m 34.974565,550.79389 v 35.748 h -8.5048 v 40.695 h 8.5048 v 28.3522 h 22.6051 v -86.6912 H 278.64777 v 86.6912 h 31.4359 v -28.3522 h 8.5051 v -40.695 h -8.5051 v -32.0499 l -20.8009,-9.0439 3.392,-7.8001 -20.8009,-9.044 -3.3911,7.801 -58.6052,-25.4801 3.3911,-7.8009 -20.8001,-9.0431 -3.3919,7.7989 -16.5481,-7.1937 v 9.4918 h -8.5048 v -9.4918 l -16.5481,7.1937 -3.3919,-7.7989 -20.8001,9.0431 3.3911,7.8009 -50.099205,21.782 -3.3908,-7.7998 -20.8012,9.0428 3.391,7.8012 z m 153.148205,-28.855 v 18.2231 h -15.5942 v 8.5059 h -8.5059 v -8.5059 h -15.5928 v -18.2231 z"
     style="fill:none;stroke:#ff0000;stroke-width:0.216;stroke-linecap:butt;stroke-linejoin:miter;stroke-dasharray:none"
     id="path1" /><path
     d="m 140.60167,641.23099 4.6729,4.5131 2.0602,1.6979 2.2989,1.355 2.484,0.9779 2.6059,0.5791 2.6652,0.163 2.6569,-0.2559 2.584,-0.6682 2.448,-1.0649 2.2522,-1.4341 1.9989,-1.768 2.56,-2.6518 -17.0532,-16.4741 5.9091,-6.118 17.0541,16.475 h 2.0239 v -7.9699 h 8.5059 v 7.9699 h 2.0242 l 17.0541,-16.475 5.9088,6.118 -17.054,16.4741 2.5611,2.6518 1.9998,1.768 2.251,1.4341 2.448,1.0649 2.5841,0.6682 2.6572,0.2559 2.6648,-0.163 2.6059,-0.5791 2.484,-0.9779 2.2992,-1.355 2.0599,-1.6979 8.953,-8.6511 h 17.613 l 2.6609,-0.2089 2.596,-0.6242 2.4661,-1.021 2.276,-1.395 2.0301,-1.7328 1.7329,-2.0302 1.3952,-2.2759 1.0219,-2.4661 0.6219,-2.596 0.21,-2.6609 h -17.011 v -8.5062 l -28.6781,-29.6909 h -73.3779 l -28.6781,29.6909 v 8.5062 H 73.194665 l -0.1259,0.1879 -0.8382,1.7 -0.6089,1.7952 -0.3699,1.8578 -0.1241,1.891 0.1241,1.891 0.3699,1.8581 0.6089,1.7949 0.8382,1.7002 1.0528,1.5749 1.2492,1.4239 1.4239,1.2501 1.5769,1.053 1.6991,0.8379 1.794,0.6092 1.859,0.3699 1.891,0.1239 49.737005,-0.7699 z m 29.298,-21.149 v -8.5062 h 28.3519 v 8.5062 z"
     style="fill:none;stroke:#ff0000;stroke-width:0.216;stroke-linecap:butt;stroke-linejoin:miter;stroke-dasharray:none"
     id="path2" /><path
     d="m 97.629565,52.176583 2.215,-4.494 2.783105,-4.1647 3.304,-3.7669 3.7661,-3.3033 4.1658,-2.783 4.4921,-2.2159 4.7449,-1.6103 4.913,-0.9777 5,-0.3274 4.9981,0.3274 4.9141,0.9777 4.7438,1.6103 4.4932,2.2159 4.1649,2.783 3.767,3.3033 3.3029,3.7669 2.7831,4.1647 2.217,4.494 1.61,4.743 0.9771,4.9138 0.3178,4.856 v 92.253607 h -12.85 V 67.111483 l -0.2358,-3.5966 -0.6492,-3.261 -1.0678,-3.1492 -1.4712,-2.9829 -1.8467,-2.7644 -2.1932,-2.5007 -2.4999,-2.192 -2.7652,-1.848 -2.9817,-1.4697 -3.1491,-1.0692 -3.2621,-0.6492 -3.3171,-0.2165 -3.3188,0.2165 -3.2609,0.6492 -3.1493,1.0692 -2.9818,1.4697 -2.7652,1.848 -2.4999,2.192 -2.1931,2.5007 -1.8468,2.7644 -1.4712,2.9829 -1.0689,3.1492 -0.648,3.261 -0.2359,3.5966 V 158.94299 H 94.722665 V 66.689383 l 0.3192,-4.856 0.9768,-4.9138 z"
     style="fill:none;stroke:#ff0000;stroke-width:0.216;stroke-linecap:butt;stroke-linejoin:miter;stroke-dasharray:none"
     id="path3" /><path
     d="m 12.235566,97.114483 v -73.4057 h 45.850999 v 28.353 h 8.5051 v 28.351 h -8.5051 v 33.403997 h 8.5051 v 28.35221 h -28.84 V 82.938483 h -8.5051 v 28.352397 h -2.8349 l -2.7661,-0.273 -2.6589,-0.8062 -2.4511,-1.3098 -2.1478,-1.7629 -1.7631,-2.1481 -1.3111,-2.4508 -0.805899,-2.659197 z"
     style="fill:none;stroke:#ff0000;stroke-width:0.216;stroke-linecap:butt;stroke-linejoin:miter;stroke-dasharray:none"
     id="path4" /><path
     d="m 420.51157,314.25609 h -83.8556 v 11.3408 h -8.5062 V 33.475583 h 8.5062 v 11.3411 h 83.8556 z"
     style="fill:none;stroke:#ff0000;stroke-width:0.216;stroke-linecap:butt;stroke-linejoin:miter;stroke-dasharray:none"
     id="path5" /><path
     d="m 340.60267,563.40299 h 62.5481 v 101.069 h -62.5481 z m 8.5062,92.5639 h 45.536 v -84.058 h -45.536 z"
     style="fill:none;stroke:#ff0000;stroke-width:0.216;stroke-linecap:butt;stroke-linejoin:miter;stroke-dasharray:none"
     id="path6" /><path
     d="M 121.35077,464.56679 H 89.104665 l -10.385,-20.1639 -7.562,3.8939 -10.3839,-20.1648 7.5609,-3.8951 -34.958,-67.881 -7.562,3.8948 -10.385,-20.1648 7.562,-3.8942 -10.384999,-20.1648 10.384999,-20.1649 -7.562,-3.8942 10.385,-20.1648 7.562,3.8951 28.866,-56.0512 -7.5619,-3.8951 10.3838,-20.1639 7.562,3.8939 10.385,-20.1639 h 28.352105 v 8.505 h 28.3519 v -8.505 h 23.7521 v 8.505 h 28.3521 V 25.989883 h 32.0499 v 8.5062 h 40.6942 v -8.5062 h 28.3521 v 28.3515 h 8.5056 v 28.3525 h -8.5056 V 231.10289 h 8.5056 v 28.3521 h -8.5056 v 148.4079 h 8.5056 v 28.3521 h -8.5056 v 28.3518 h -28.3521 v 8.5062 h -28.3522 v -8.5062 h -86.5091 v 8.5062 h -28.3518 z m 85.0138,-415.411907 0.7441,-0.2531 0.7061,-0.3479 0.654,-0.4371 0.591,-0.519 0.519,-0.5913 0.4369,-0.6548 0.348,-0.7053 0.2529,-0.7446 0.1542,-0.7713 0.051,-0.7858 -0.051,-0.7852 -0.1542,-0.7707 -0.2529,-0.7452 -0.348,-0.7062 -0.4369,-0.6533 -0.519,-0.5925 -0.591,-0.5182 -0.654,-0.4368 -0.7061,-0.3478 -0.7441,-0.2531 -0.7718,-0.1528 -0.785,-0.0525 -0.7849,0.0525 -0.7721,0.1528 -0.745,0.2531 -0.7061,0.3478 -0.6539,0.4368 -0.5911,0.5182 -0.519,0.5925 -0.4371,0.6533 -0.3478,0.7062 -0.2531,0.7452 -0.1531,0.7707 -0.0507,0.7852 0.0507,0.7858 0.1531,0.7713 0.2531,0.7446 0.3478,0.7053 0.4371,0.6548 0.519,0.5913 0.5911,0.519 0.6539,0.4371 0.7061,0.3479 0.745,0.2531 0.7721,0.1528 0.7849,0.0519 0.785,-0.0519 z m 58.1993,138.668007 v -8.505 h -28.3522 v 8.505 z"
     style="fill:none;stroke:#ff0000;stroke-width:0.216;stroke-linecap:butt;stroke-linejoin:miter;stroke-dasharray:none"
     id="path7" /><path
     d="m 746.73817,490.37089 v -64.872 h 66.1578 v 64.872 z m 5.6705,-59.2019 v 14.063 h 54.8172 v -14.063 z m 0,19.734 v 14.0641 h 54.8172 v -14.0641 z m 0,33.7969 h 54.8172 v -14.063 h -54.8172 z"
     style="fill:none;stroke:#ff0000;stroke-width:0.216;stroke-linecap:butt;stroke-linejoin:miter;stroke-dasharray:none"
     id="path8" /><path
     d="M 622.47617,192.70699 H 451.05777 V 29.559583 h 171.4184 v 22.6811 h 8.5056 v 22.6823 h -8.5056 v 62.593707 h 8.5056 v 22.6812 h -8.5056 z M 469.14877,52.240683 v 22.6823 h 8.505 v -22.6823 z m 0,77.312107 v 22.6809 h 8.505 v -22.6809 z"
     style="fill:none;stroke:#ff0000;stroke-width:0.216;stroke-linecap:butt;stroke-linejoin:miter;stroke-dasharray:none"
     id="path9" /><path
     d="m 821.67717,173.42599 v -22.6819 h 8.5051 v -22.6812 h -8.5051 V 67.855583 h 8.5051 v -22.6817 h -8.5051 v -22.6811 H 650.25937 V 194.97269 h 112.5606 v -21.5467 z M 676.85487,45.173883 v 22.6817 h -8.5062 v -22.6817 z m 0,86.586007 v 22.682 h -8.5062 v -22.682 z"
     style="fill:none;stroke:#ff0000;stroke-width:0.216;stroke-linecap:butt;stroke-linejoin:miter;stroke-dasharray:none"
     id="path10" /><path
     d="m 747.62577,660.93999 v -64.872 h 66.1578 v 64.872 z m 5.671,-59.2021 v 14.0641 h 54.8163 v -14.0641 z m 0,19.7342 v 14.0638 h 54.8163 v -14.0638 z m 0,33.7978 h 54.8163 v -14.0638 h -54.8163 z"
     style="fill:none;stroke:#ff0000;stroke-width:0.216;stroke-linecap:butt;stroke-linejoin:miter;stroke-dasharray:none"
     id="path11" /><path
     d="m 735.96797,407.59979 8.2378,7.7941 5.8461,-6.18 v -8.5048 h 5.6699 v 8.5048 h 14.0641 v -8.5048 h 5.6701 v 8.5048 h 14.0641 v -8.5048 h 5.6702 v 8.5048 h 14.0635 v -8.5048 h 5.6701 v -27.6392 h 38.1362 v -23.7119 h -77.896 v 12.371 h -8.5051 v -12.371 h -32.5293 v 44.7959 l 7.6831,7.2669 z"
     style="fill:none;stroke:#ff0000;stroke-width:0.216;stroke-linecap:butt;stroke-linejoin:miter;stroke-dasharray:none"
     id="path12" /><path
     d="m 814.20217,293.33179 v -76.3948 h -28.3512 v 8.5051 h -28.3533 v -8.5051 h -123.5245 v 8.5051 h -28.3513 v -8.5051 h -104.5771 v 8.5051 h -28.3519 v -8.5051 h -28.3513 v 8.5051 h -8.5056 v 22.8217 h 8.5056 v 8.5051 h 28.3513 v -8.5051 h 28.3519 v 8.5051 h 104.5771 v -8.5051 h 28.3513 v 8.5051 h 28.3527 l 8.068,10.0559 6.6342,-5.3229 10.6458,13.269 -6.634,5.322 10.6232,13.2389 h 4.0799 v -8.505 h 28.3524 v 8.505 h 33.4023 v -8.505 h 28.3533 v 8.505 z"
     style="fill:none;stroke:#ff0000;stroke-width:0.216;stroke-linecap:butt;stroke-linejoin:miter;stroke-dasharray:none"
     id="path13" /><path
     d="m 46.632065,434.51529 h -8.5048 v 12.8928 h -20.3352 v -12.8928 H 9.2861655 v -17.011 h 8.5058995 v -12.8931 h 20.3352 v 12.8931 h 8.5048 z"
     style="fill:none;stroke:#ff0000;stroke-width:0.216;stroke-linecap:butt;stroke-linejoin:miter;stroke-dasharray:none"
     id="path14" /><path
     d="m 898.93597,448.14799 h -16.4741 v -29.63 h 24.9803 v 150.5211 l -0.1312,1.3269 -0.3869,1.277 -0.629,1.1761 -0.8459,1.0318 -1.031,0.845 -1.1775,0.6302 -1.2767,0.3869 -1.3269,0.131 h -0.0312 l -1.3269,0.1301 -1.2761,0.3869 -1.177,0.629 -1.0309,0.847 -0.8459,1.0301 -0.629,1.177 -0.3869,1.277 -0.1313,1.3269 v 75.8959 l -0.1309,1.3272 -0.387,1.277 -0.629,1.1769 -0.8458,1.031 -1.0313,0.847 -1.1772,0.6279 -1.2745,0.388 -1.3283,0.1321 -4.536,0.003 v -21.836 h -8.5059 v -8.5059 h -8.5062 v -42.1571 h 8.5062 v -8.506 h 8.5059 v -32.5511 h -8.5059 l -16.0611,-16.3749 -6.0727,5.9551 -13.6301,-13.896 6.0718,-5.9562 h 8.5048 v -5.671 h -8.5048 v -14.0629 h 8.5048 v -5.6702 h -8.5048 v -14.0638 h 8.5048 v -5.671 h -8.5048 v -14.0629 h 8.5048 v -5.6702 h 46.1673 z"
     style="fill:none;stroke:#ff0000;stroke-width:0.216;stroke-linecap:butt;stroke-linejoin:miter;stroke-dasharray:none"
     id="path15" /><path
     d="m 888.96007,323.78389 v 75.8959 l -0.1299,1.328 -0.3883,1.277 -0.6287,1.1761 -0.8462,1.0321 -1.0309,0.8459 -1.1761,0.629 -1.277,0.3869 -1.3269,0.1321 -4.5372,0.003 v -21.8361 h -8.505 v -8.5062 h -8.506 v -42.1568 h 8.506 v -8.5048 h 8.505 v -32.5522 h -8.505 l -16.0611,-16.3749 -6.0716,5.9558 -13.6309,-13.8971 6.0715,-5.9559 h 8.5062 v -5.6701 h -8.5062 v -14.0638 h 8.5062 v -5.6702 h -8.5062 v -14.0638 h 8.5062 v -5.6698 h -8.5062 v -14.0644 h 8.5062 v -5.6699 h 38.1971 v -8.5059 h -8.5062 v -29.63 h 24.9812 v 150.5208 l -0.131,1.3281 -0.3872,1.2761 -0.6287,1.177 -0.8461,1.0309 -1.031,0.8462 -1.1772,0.6287 -1.2759,0.3872 -1.328,0.131 h -0.0298 l -1.328,0.1309 -1.2765,0.3872 -1.1766,0.6288 -1.031,0.8461 -0.8461,1.031 -0.6288,1.1769 -0.3872,1.2762 z"
     style="fill:none;stroke:#ff0000;stroke-width:0.216;stroke-linecap:butt;stroke-linejoin:miter;stroke-dasharray:none"
     id="path16" /><path
     d="m 818.54577,526.60299 v 27.6378 l 38.1364,0.001 v 23.7109 h -40.8594 l -2.6609,-0.21 -2.5957,-0.6228 -2.4661,-1.021 -2.2765,-1.3952 -2.0293,-1.734 -1.7331,-2.0299 -1.395,-2.2751 -1.021,-2.4658 -0.6245,-2.596 -0.2097,-2.6612 v -17.329 h -61.0589 v -10.455 l 7.6828,-7.268 -5.8451,-6.179 8.2378,-7.793 5.8462,6.1789 v 8.5062 h 5.6698 v -8.5062 h 14.0633 v 8.5062 h 5.671 v -8.5062 h 14.0632 v 8.5062 h 5.6699 v -8.5062 h 14.0641 v 8.5062 z"
     style="fill:none;stroke:#ff0000;stroke-width:0.216;stroke-linecap:butt;stroke-linejoin:miter;stroke-dasharray:none"
     id="path17" /><path
     d="M 333.82107,314.25609 V 44.816683"
     style="fill:#0000ff;stroke:#0000ff;stroke-width:0.216;stroke-linecap:butt;stroke-linejoin:miter;stroke-dasharray:none"
     id="path18" /><path
     d="M 348.26977,314.25609 V 44.816683"
     style="fill:#0000ff;stroke:#0000ff;stroke-width:0.216;stroke-linecap:butt;stroke-linejoin:miter;stroke-dasharray:none"
     id="path19" /><path
     d="M 362.71767,314.25609 V 44.816683"
     style="fill:#0000ff;stroke:#0000ff;stroke-width:0.216;stroke-linecap:butt;stroke-linejoin:miter;stroke-dasharray:none"
     id="path20" /><path
     d="M 377.16557,314.25609 V 44.816683"
     style="fill:#0000ff;stroke:#0000ff;stroke-width:0.216;stroke-linecap:butt;stroke-linejoin:miter;stroke-dasharray:none"
     id="path21" /><path
     d="M 391.61467,314.25609 V 44.816683"
     style="fill:#0000ff;stroke:#0000ff;stroke-width:0.216;stroke-linecap:butt;stroke-linejoin:miter;stroke-dasharray:none"
     id="path22" /><path
     d="M 406.06397,314.25609 V 44.816683"
     style="fill:#0000ff;stroke:#0000ff;stroke-width:0.216;stroke-linecap:butt;stroke-linejoin:miter;stroke-dasharray:none"
     id="path23" /><path
     d="m 80.883665,631.14389 -0.4329,-0.6488 -0.3461,-0.699 -0.25,-0.739 -0.152,-0.7651 -0.051,-0.7781 0.051,-0.779 0.152,-0.7639 0.25,-0.739 0.3461,-0.6999 0.4329,-0.648 0.5142,-0.587 0.5867,-0.5142 0.648,-0.4329 0.7002,-0.345 0.739,-0.2511 0.7639,-0.152 0.779,-0.051 0.7781,0.051 0.7651,0.152 0.7387,0.2511 0.699,0.345 0.6491,0.4329 0.5859,0.5142 0.5151,0.587 0.4331,0.648 0.345,0.6999 0.25,0.739 0.152,0.7639 0.0518,0.779 -0.0518,0.7781 -0.152,0.7651 -0.25,0.739 -0.345,0.699 -0.4331,0.6488 -0.5151,0.5862 -0.5859,0.5148 -0.6491,0.4331 -0.699,0.345 -0.7387,0.2509 -0.7651,0.1522 -0.7781,0.0507 -0.779,-0.0507 -0.7639,-0.1522 -0.739,-0.2509 -0.7002,-0.345 -0.648,-0.4331 -0.5867,-0.5148 z"
     style="fill:none;stroke:#ff0000;stroke-width:0.216;stroke-linecap:butt;stroke-linejoin:miter;stroke-dasharray:none"
     id="path24" /><path
     d="m 624.20467,594.61189 h 15.6804 v 8.5062 h 8.506 v -8.5062 h 15.6798 v -84.1918 h -15.6798 v -8.5062 h -8.506 v 8.5062 h -15.6804 z m -171.9456,28.3062 -7.4191,4.1598 -13.8663,-24.7289 7.4183,-4.1601 -34.124,-60.859 -7.418,4.1601 -13.8671,-24.7291 7.4188,-4.1599 -13.8668,-24.7303 16.1102,-30.4869 h -41.7342 v -8.5059 h -8.506 v -22.822 h 99.6398 v -8.5051 h -28.3518 l 29.2569,-55.368 -7.63,-4.032 13.2469,-25.0667 7.628,4.0308 13.246,-25.0679 h 32.847 v -8.5051 h 28.351 v 8.5051 h 133.4294 v -8.5051 h 28.3515 v 8.5051 h 28.3524 v 28.3519 h 8.5051 v 28.3521 h -8.5051 v 12.2369 h -59.2302 v 8.5062 h 59.2302 v 59.3838 h -59.2302 v 8.5059 h 59.2302 v 8.2871 h 8.5051 v 28.353 h -8.5051 v 96.9202 h 8.5051 v 28.3519 h -8.5051 v 28.3521 h -28.3524 v 8.5048 h -28.3515 v -8.5048 h -133.4294 v 8.5048 h -28.351 v -8.5048 h -36.1629 z m 106.5637,-66.2171 h 8.5059 v -8.5059 h -8.5059 v -37.7081 h -45.5361 v 37.7081 h -8.5059 v 8.5059 h 8.5059 v 37.844 h 45.5361 z m -95.3728,-107.8231 v 8.5059 h 56.704 v -8.5059 z m 130.7934,-49.3279 -6.6342,-5.3229 -10.6461,13.2678 6.6336,5.3229 z"
     style="fill:none;stroke:#ff0000;stroke-width:0.216;stroke-linecap:butt;stroke-linejoin:miter;stroke-dasharray:none"
     id="path25" /><path
     d="m 331.51333,538.42567 v -64.8728 h 37.6702 v 64.8728 z m 32,-25.4049 v -14.063 h -26.329 v 14.063 z m -26.329,-33.7972 v 14.0641 h 26.329 v -14.0641 z m 26.329,53.5311 v -14.063 h -26.329 v 14.063 z"
     style="fill:none;stroke:#ff0000;stroke-width:0.216;stroke-linecap:butt;stroke-linejoin:miter;stroke-dasharray:none"
     id="path1-4" /><path
     d="m 1568.9506,25.460073 h 64.8719 v 37.6699 h -64.8719 z m 39.4675,31.9989 v -26.3291 h -14.0627 v 26.3291 z m 19.7342,-26.3291 h -14.0629 v 26.3291 h 14.0629 z m -39.4679,26.3291 v -26.3291 h -14.064 v 26.3291 z"
     style="fill:none;stroke:#ff0000;stroke-width:0.216;stroke-linecap:butt;stroke-linejoin:miter;stroke-dasharray:none"
     id="path2-5" /><path
     d="m 817.1193,300.29485 -13.6222,41.6701 -27.6591,-41.6701 h 14.5831 v 11.3411 h 8.5057 v -11.3411 z"
     style="fill:none;stroke:#ff0000;stroke-width:0.216;stroke-linecap:butt;stroke-linejoin:miter;stroke-dasharray:none"
     id="path3-5" /><path
     d="m 1552.0487,619.66288 h 18.2245 v 8.5051 h 8.5057 v 8.5059 h 11.7241 v 5.6713 l -0.2189,2.2119 -0.6451,2.1268 -1.0469,1.9613 -1.4111,1.7189 -1.7192,1.4108 -1.9596,1.0471 -2.1279,0.6449 -2.2125,0.2191 h -43.0251 l -2.2127,-0.2191 -2.1268,-0.6449 -1.9605,-1.0471 -1.7189,-1.4108 -1.4108,-1.7189 -1.0477,-1.9613 -0.6454,-2.1268 -0.2175,-2.2119 v -22.6823 h 9.4916 v 17.011 h 17.7607 z"
     style="fill:none;stroke:#ff0000;stroke-width:0.216;stroke-linecap:butt;stroke-linejoin:miter;stroke-dasharray:none"
     id="path4-1" /><path
     d="m 986.84302,628.08131 v 35.234 h -56.704 v -35.234 z m -48.198,8.5059 v 18.2231 h 39.6921 v -18.2231 z"
     style="fill:none;stroke:#ff0000;stroke-width:0.216;stroke-linecap:butt;stroke-linejoin:miter;stroke-dasharray:none"
     id="path5-7" /><path
     d="m 1507.5452,653.18834 h -64.8734 v -37.6701 h 64.8734 z m -39.4684,-32 v 26.329 h 14.0641 v -26.329 z m -19.734,26.329 h 14.0638 v -26.329 h -14.0638 z m 39.4682,-26.329 v 26.329 h 14.063 v -26.329 z"
     style="fill:none;stroke:#ff0000;stroke-width:0.216;stroke-linecap:butt;stroke-linejoin:miter;stroke-dasharray:none"
     id="path6-1" /><path
     d="m 1488.9133,64.02907 h -32.436 v -19.4658 h -8.5051 v 19.4658 h -32.436 l 11.1339,-42.4041 h 51.1101 z"
     style="fill:none;stroke:#ff0000;stroke-width:0.216;stroke-linecap:butt;stroke-linejoin:miter;stroke-dasharray:none"
     id="path7-1" /><path
     d="m 765.64164,297.7898 13.6222,41.6699 h -18.1931 v -11.34 h -8.5051 v 11.34 h -14.5828 z"
     style="fill:none;stroke:#ff0000;stroke-width:0.216;stroke-linecap:butt;stroke-linejoin:miter;stroke-dasharray:none"
     id="path8-5" /><path
     d="m 515.13831,684.39634 h 17.612 l 2.6611,0.2109 2.596,0.6227 2.467,1.0208 2.2748,1.3949 2.0302,1.7331 1.7342,2.0302 1.3949,2.2759 1.0211,2.4659 0.6224,2.596 0.2092,2.6611 h -17.0109 v 8.5062 l -28.6779,29.691 h -73.3773 l -28.6781,-29.691 v -8.5062 h -17.0119 l 0.2101,-2.6611 0.623,-2.596 1.0222,-2.4659 1.3938,-2.2759 1.7342,-2.0302 2.0296,-1.7331 2.2763,-1.3949 2.4661,-1.0208 2.5957,-0.6227 2.6609,-0.2109 h 17.6122 l 8.9541,-8.6502 2.0588,-1.6983 2.3,-1.3549 2.484,-0.9788 2.6062,-0.5783 2.664,-0.1624 2.6569,0.2559 2.5849,0.6676 2.448,1.0641 2.251,1.4341 1.999,1.7688 2.5619,2.6524 -17.0549,16.4744 5.9091,6.1171 17.0541,-16.4738 h 2.0239 v 7.9676 h 8.5062 v -7.9676 h 2.0248 l 17.0541,16.4738 5.9091,-6.1171 -17.0541,-16.4744 2.5611,-2.6524 1.9993,-1.7688 2.2516,-1.4341 2.4468,-1.0641 2.5852,-0.6676 2.6566,-0.2559 2.664,0.1624 2.6062,0.5783 2.484,0.9788 2.3,1.3549 2.06,1.6983 z m -61.9299,17.0115 v 8.5062 h 28.3521 v -8.5062 z"
     style="fill:none;stroke:#ff0000;stroke-width:0.216;stroke-linecap:butt;stroke-linejoin:miter;stroke-dasharray:none"
     id="path9-2" /><path
     d="m 1315.6154,557.61661 h 33.9271 v 113.5111 h -33.9271 z m 8.5048,8.5062 v 96.4999 h 16.9161 v -96.4999 z"
     style="fill:none;stroke:#ff0000;stroke-width:0.216;stroke-linecap:butt;stroke-linejoin:miter;stroke-dasharray:none"
     id="path10-7" /><path
     d="m 472.81409,302.61859 h -16.916 v -8.5051 h -8.506 v -8.5062 h -9.072 v -2.8361 l 0.1749,-2.2166 0.5179,-2.1629 0.8524,-2.0548 1.1619,-1.8972 1.4451,-1.6912 1.6909,-1.4448 1.8969,-1.1622 2.0554,-0.8515 2.1626,-0.5194 2.2181,-0.1737 h 23.7538 l 2.2172,0.1737 2.164,0.5194 2.0548,0.8515 1.8975,1.1622 1.6909,1.4448 1.4448,1.6912 1.1617,1.8972 0.8509,2.0548 0.5205,2.1629 0.1737,2.2166 v 2.8361 h -9.1068 v 8.5062 h -8.5051 z"
     style="fill:none;stroke:#ff0000;stroke-width:0.216;stroke-linecap:butt;stroke-linejoin:miter;stroke-dasharray:none"
     id="path11-6" /><path
     d="m 1360.5628,636.89285 h 6.4248 v -8.505 h -8.5054 v -8.5063 h 67.8909 v 8.5063 h -8.5062 v 8.505 h 6.4247 v 38.382 h -63.7288 z"
     style="fill:none;stroke:#ff0000;stroke-width:0.216;stroke-linecap:butt;stroke-linejoin:miter;stroke-dasharray:none"
     id="path12-1" /><path
     d="m 1357.467,557.10631 h 54.3569 v 56.844 h -54.3569 z m 8.5062,39.833 h 37.3451 v -22.8263 h -37.3451 z"
     style="fill:none;stroke:#ff0000;stroke-width:0.216;stroke-linecap:butt;stroke-linejoin:miter;stroke-dasharray:none"
     id="path13-4" /><path
     d="m 827.74877,692.38147 -0.8376,-1.6991 -0.6092,-1.7949 -0.369,-1.8581 -0.1236,-1.891 1.0545,-68.1641 -2.0172,-2.0674 -1.3875,-1.7348 -1.0211,-1.9709 -0.6157,-2.1308 -0.1851,-2.211 0.2509,-2.2028 0.6778,-2.1124 1.08,-1.94 1.44,-1.6932 8.263,-7.9806 h 11.717 l 14.76,15.2759 -8.157,7.8789 -11.8196,-12.2338 -6.1183,5.9091 13.996,14.4859 v 75.312 l -0.189,0.1262 -1.6994,0.8376 -1.7938,0.6094 -1.8589,0.3697 -1.8913,0.1233 -1.8904,-0.1233 -1.8579,-0.3697 -1.7957,-0.6094 -1.6985,-0.8376 -1.5764,-1.0531 -1.4235,-1.249 -1.2504,-1.4252 z m 18.3059,-5.7002 0.1525,-0.7636 0.051,-0.7793 -0.051,-0.7778 -0.1525,-0.7654 -0.2509,-0.7387 -0.3447,-0.699 -0.4331,-0.6491 -0.5142,-0.5871 -0.5865,-0.5139 -0.648,-0.4329 -0.7004,-0.3452 -0.7382,-0.2509 -0.7659,-0.1522 -0.7781,-0.0507 -0.7778,0.0507 -0.7651,0.1522 -0.7384,0.2509 -0.6993,0.3452 -0.6492,0.4329 -0.5862,0.5139 -0.5133,0.5871 -0.4343,0.6491 -0.345,0.699 -0.2503,0.7387 -0.1528,0.7654 -0.051,0.7778 0.051,0.7793 0.1528,0.7636 0.2503,0.739 0.345,0.699 0.4343,0.6489 0.5133,0.587 0.5862,0.5131 0.6492,0.4343 0.6993,0.3447 0.7384,0.2511 0.7651,0.1519 0.7778,0.0514 0.7781,-0.0514 0.7659,-0.1519 0.7382,-0.2511 0.7004,-0.3447 0.648,-0.4343 0.5865,-0.5131 0.5142,-0.587 0.4331,-0.6489 0.3447,-0.699 z"
     style="fill:none;stroke:#ff0000;stroke-width:0.216;stroke-linecap:butt;stroke-linejoin:miter;stroke-dasharray:none"
     id="path14-2" /><path
     d="M 1184.5975,663.6479 V 636.009 h -38.1354 v -23.711 h 40.8583 l 2.6612,0.2089 2.5948,0.6231 2.4673,1.0219 2.2759,1.3941 2.0288,1.7339 1.7342,2.0302 1.395,2.2759 1.0221,2.4659 0.6217,2.596 0.2103,2.6611 v 17.3279 h 61.0588 v 10.4562 l -7.6821,7.2677 5.845,6.1781 -8.2389,7.7942 -5.845,-6.1793 v -8.5059 h -5.6702 v 8.5059 h -14.0641 v -8.5059 h -5.6698 v 8.5059 h -14.0638 v -8.5059 h -5.6699 v 8.5059 h -14.0632 v -8.5059 z"
     style="fill:none;stroke:#ff0000;stroke-width:0.216;stroke-linecap:butt;stroke-linejoin:miter;stroke-dasharray:none"
     id="path15-3" /><path
     d="m 53.094952,754.33459 h -11.34 l -2.2136,-0.2179 -2.128,-0.6449 -1.9596,-1.048 -1.7189,-1.4099 -1.4102,-1.7193 -1.048,-1.961 -0.6457,-2.1268 -0.2172,-2.2122 v -8.5059 h -12.6192 v -67.89 h 80.7689 l 4.430298,0.29 4.3549,0.8659 4.2052,1.4281 3.9818,1.963 3.6918,2.467 3.3384,2.9279 2.9279,3.3381 2.467,3.6918 1.9638,3.9822 1.427,4.2052 0.8663,4.3548 0.2908,4.43 -0.2908,4.4311 -0.8663,4.3549 -1.427,4.2049 -1.9638,3.9821 -2.467,3.6921 -2.9279,3.339 -3.3384,2.927 -3.6918,2.467 v 13.0538 l -0.2171,2.2122 -0.6458,2.1268 -1.0477,1.961 -1.4102,1.7193 -1.7192,1.4099 -1.9602,1.048 -2.1279,0.6449 -2.2119,0.2179 H 92.854552 v -8.5059 h 8.504998 v -11.5239 l -2.796098,0.1839 h -53.9747 v 11.34 h 8.5062 z m 14.4646,-67.227 0.5553,0.0372 0.5545,-0.0372 0.5462,-0.108 0.527,-0.1788 0.4991,-0.2461 0.4624,-0.309 0.4184,-0.3671 0.3662,-0.4181 0.3087,-0.4629 0.2466,-0.4989 0.1789,-0.5261 0.1091,-0.5459 0.036,-0.555 -0.036,-0.5551 -0.1091,-0.5459 -0.1789,-0.527 -0.2466,-0.498 -0.3087,-0.4629 -0.3662,-0.4181 -0.4184,-0.3668 -0.4624,-0.3093 -0.4991,-0.2461 -0.527,-0.1788 -0.5462,-0.108 -0.5545,-0.0372 -0.5553,0.0372 -0.5462,0.108 -0.5259,0.1788 -0.4989,0.2461 -0.4629,0.3093 -0.4181,0.3668 -0.3668,0.4181 -0.3092,0.4629 -0.2458,0.498 -0.1789,0.527 -0.108,0.5459 -0.036,0.5551 0.036,0.555 0.108,0.5459 0.1789,0.5261 0.2458,0.4989 0.3092,0.4629 0.3668,0.4181 0.4181,0.3671 0.4629,0.309 0.4989,0.2461 0.5259,0.1788 z"
     style="fill:none;stroke:#ff0000;stroke-width:0.216;stroke-linecap:butt;stroke-linejoin:miter;stroke-dasharray:none"
     id="path16-2" /><path
     d="m 364.85511,711.31485 v -28.84 h -62.782 v -2.8349 l -0.273,-2.766 -0.8059,-2.6589 -1.3102,-2.4512 -1.7631,-2.1481 -2.1487,-1.7628 -2.4502,-1.3099 -2.6598,-0.807 -2.7649,-0.2722 h -28.3524 l -2.7658,0.2722 -2.6592,0.807 -2.4508,1.3099 -2.1478,1.7628 -1.7632,2.1481 -1.3101,2.4512 -0.8068,2.6589 -0.2721,2.766 v 2.8349 h 28.3521 v 8.5051 H 146.8711 v 20.3349 h 28.3522 v 8.5051 h 28.3518 v -8.5051 h 104.57601 v 8.5051 h 28.3524 v -8.5051 z"
     style="fill:none;stroke:#ff0000;stroke-width:0.216;stroke-linecap:butt;stroke-linejoin:miter;stroke-dasharray:none"
     id="path17-2" /><path
     d="m 927.75992,605.51531 v -45.8521 h 28.353 v -8.5051 h 28.3521 v 8.5051 h 123.52508 v -8.5051 h 28.3521 v 8.5051 h 104.5758 v -8.5051 h 28.3524 v 8.5051 h 28.3518 v 20.3349 H 1185.082 v 8.5051 h 28.3512 v 2.836 l -0.2712,2.765 -0.8076,2.66 -1.3102,2.4511 -1.762,2.1478 -2.149,1.762 -2.4499,1.3111 -2.6601,0.807 -2.7652,0.2721 h -28.3521 l -2.7658,-0.2721 -2.6591,-0.807 -2.4509,-1.3111 -2.1481,-1.762 -1.7631,-2.1478 -1.3099,-2.4511 -0.807,-2.66 -0.273,-2.765 v -11.3411 H 986.99102 v 8.5051 h 28.35208 v 2.836 l -0.273,2.765 -0.807,2.66 -1.3102,2.4511 -1.7628,2.1478 -2.1481,1.762 -2.4512,1.3111 -2.6589,0.807 -2.766,0.2721 z"
     style="fill:none;stroke:#ff0000;stroke-width:0.216;stroke-linecap:butt;stroke-linejoin:miter;stroke-dasharray:none"
     id="path18-1" /><path
     d="m 1027.889,605.25921 h 101.2039 v 56.8781 H 1027.889 Z m 92.6991,8.506 h -84.1929 v 39.8661 h 84.1929 z"
     style="fill:none;stroke:#ff0000;stroke-width:0.216;stroke-linecap:butt;stroke-linejoin:miter;stroke-dasharray:none"
     id="path19-6" /><path
     d="m 558.38293,302.11382 -2.7666,-0.2727 -2.6595,-0.8062 -2.4514,-1.3102 -2.1475,-1.7628 -1.7635,-2.1487 -1.309,-2.4503 -0.8065,-2.66 -0.2735,-2.7657 v -2.8338 h 11.3411 v -8.5062 h 8.5062 v -8.5063 h 45.5361 v 8.5063 h 8.5059 v 8.5062 h 11.34 v 2.8338 l -0.2719,2.7657 -0.8061,2.66 -1.3099,2.4503 -1.7632,2.1487 -2.1489,1.7628 -2.4508,1.3102 -2.6592,0.8062 -2.7649,0.2727 z"
     style="fill:none;stroke:#ff0000;stroke-width:0.216;stroke-linecap:butt;stroke-linejoin:miter;stroke-dasharray:none"
     id="path20-8" /><path
     d="m 323.55873,368.50944 h -8.5062 v -8.5051 h -11.34 v -2.8361 l 0.2721,-2.7652 0.807,-2.6589 1.3099,-2.4508 1.7632,-2.1484 2.1478,-1.7628 2.4511,-1.3099 2.6589,-0.8073 2.766,-0.2716 h 95.5341 l 2.7649,0.2716 2.66,0.8073 2.4512,1.3099 2.1478,1.7628 1.762,2.1484 1.311,2.4508 0.8062,2.6589 0.2718,2.7652 v 2.8361 h -11.34 v 8.5051 h -8.505 v 8.5062 h -84.1938 z"
     style="fill:none;stroke:#ff0000;stroke-width:0.216;stroke-linecap:butt;stroke-linejoin:miter;stroke-dasharray:none"
     id="path21-5" /><path
     d="M 1436.7713,537.76601 H 917.01212 V 302.43121 H 1436.7713 Z M 937.53692,428.95821 v 28.3518 h 8.5062 v -28.3518 z m 0,-98.125 v 28.3519 h 8.5062 v -28.3519 z m 482.22198,98.125 v 28.3518 h 8.5062 v -28.3518 z m 0,-98.125 v 28.3519 h 8.5062 v -28.3519 z"
     style="fill:none;stroke:#ff0000;stroke-width:0.216;stroke-linecap:butt;stroke-linejoin:miter;stroke-dasharray:none"
     id="path22-7" /><path
     d="m 1687.062,243.63221 h -8.5051 v -28.3522 h 8.5051 v -86.5091 h -8.5051 v -28.3519 h 8.5051 v -27.7639 h -283.614 v -50.548 H 912.71982 v 31.3926 h 8.5051 v 28.3513 h -8.5051 v 133.429 h 8.5051 v 28.3522 h -8.5051 v 28.3518 h 36.8572 v 8.5051 h 28.3519 v -8.5051 h 195.74018 v 8.5051 h 28.3521 v -8.5051 h 195.7397 v 8.5051 h 28.3521 v -8.5051 h 195.7402 v 8.5051 h 28.3522 v -8.5051 h 36.8566 z m -292.1199,0 v -28.3522 h 8.5059 v 28.3522 z m 0,-114.8613 v -28.3519 h 8.5059 v 28.3519 z"
     style="fill:none;stroke:#ff0000;stroke-width:0.216;stroke-linecap:butt;stroke-linejoin:miter;stroke-dasharray:none"
     id="path23-6" /><path
     d="m 1451.9891,303.18842 h 196.181 v 294.8168 h -28.3519 v 8.5062 h -28.3521 v -8.5062 h -62.1791 v 8.5062 h -28.3518 v -8.5062 h -48.9461 z m 74.463,19.7079 v -8.5048 h -22.6812 v 8.5048 z m 99.0368,-8.5048 h -22.682 v 8.5048 h 22.682 z"
     style="fill:none;stroke:#ff0000;stroke-width:0.216;stroke-linecap:butt;stroke-linejoin:miter;stroke-dasharray:none"
     id="path24-1" /><path
     d="m 310.19894,519.47913 h -64.8731 v -37.6699 h 64.8731 z m -39.4682,-31.9989 v 26.329 h 14.0641 v -26.329 z m -19.7339,26.329 h 14.0629 v -26.329 h -14.0629 z m 39.4681,-26.329 v 26.329 h 14.0639 v -26.329 z"
     style="fill:none;stroke:#ff0000;stroke-width:0.216;stroke-linecap:butt;stroke-linejoin:miter;stroke-dasharray:none"
     id="path25-8" /><path
     d="m 1486.8918,21.515383 h 32.436 v 19.4658 h 8.5048 v -19.4658 h 32.4369 l -11.1336,42.4029 h -51.1105 z"
     style="fill:none;stroke:#ff0000;stroke-width:0.216;stroke-linecap:butt;stroke-linejoin:miter;stroke-dasharray:none"
     id="path26" /><path
     d="m 353.0364,409.6398 -41.671,13.6219 v -18.1928 h 11.34 v -8.505 h -11.34 v -14.582 z"
     style="fill:none;stroke:#ff0000;stroke-width:0.216;stroke-linecap:butt;stroke-linejoin:miter;stroke-dasharray:none"
     id="path27" /><path
     d="m 1643.3015,21.034367 41.671,13.6222 -41.671,27.6579 v -14.582 h 11.3411 v -8.5059 h -11.3411 z"
     style="fill:none;stroke:#ff0000;stroke-width:0.216;stroke-linecap:butt;stroke-linejoin:miter;stroke-dasharray:none"
     id="path28" /><path
     d="m 931.71215,1528.6907 v -83.0817 l 24.7292,-13.8663 -4.159,-7.4188 24.7289,-13.866 4.1598,7.4192 60.85825,-34.1241 -4.1599,-7.4194 24.7301,-13.8665 4.1589,7.4188 24.7301,-13.8662 25.0679,13.2463 3.9739,-7.52 25.067,13.2451 -3.9742,7.5201 75.5541,39.9228 4.0331,-7.632 25.0682,13.2446 -4.0331,7.6332 25.0671,13.2463 v 32.8461 h 8.5047 v 28.3516 h -8.5047 v 92.7337 h 102.9758 v 28.3524 h -8.505 v 40.6939 h 8.5062 v 28.3524 h -28.3519 v 8.5048 h -28.3524 v -8.5048 h -96.624 v -110.3711 h -8.5051 v 110.3711 h -43.2799 v 8.5048 h -28.3518 v -8.5048 H 988.41535 v 8.5048 h -28.3522 v -8.5048 h -28.351 v -28.3524 h -8.5059 v -28.3521 h 8.5059 v -86.5086 h -8.5059 v -28.3524 z m 416.45035,87.1183 0.5179,0.5908 0.5922,0.5193 0.6539,0.4368 0.705,0.3478 0.7458,0.2531 0.771,0.154 0.7849,0.051 0.7849,-0.051 0.7722,-0.154 0.7449,-0.2531 0.7053,-0.3478 0.6551,-0.4368 0.5907,-0.5193 0.5193,-0.5908 0.4368,-0.6539 0.3479,-0.7061 0.2522,-0.7453 0.154,-0.7707 0.052,-0.7852 -0.052,-0.7858 -0.154,-0.7713 -0.2522,-0.7446 -0.3479,-0.7064 -0.4368,-0.6537 -0.5193,-0.5913 -0.5907,-0.5185 -0.6551,-0.4371 -0.7053,-0.3483 -0.7449,-0.2532 -0.7722,-0.1528 -0.7849,-0.052 -0.7849,0.052 -0.771,0.1528 -0.7458,0.2532 -0.705,0.3483 -0.6539,0.4371 -0.5922,0.5185 -0.5179,0.5913 -0.4371,0.6537 -0.3489,0.7064 -0.2529,0.7446 -0.1531,0.7713 -0.051,0.7858 0.051,0.7852 0.1531,0.7707 0.2529,0.7453 0.3489,0.7061 z m -72.3453,56.0948 v -28.3521 h -8.5047 v 28.3521 z m -101.7051,-203.6188 25.2051,12.9798 3.894,-7.5617 -25.2048,-12.9804 z m -68.6537,-35.3571 25.206,12.981 3.8939,-7.5617 -25.2059,-12.9804 z m -75.6181,12.981 25.206,-12.981 -3.894,-7.5611 -25.206,12.9804 z m -55.27905,28.468 -3.8939,-7.5611 -25.2051,12.9801 3.8939,7.5617 z"
     style="fill:none;stroke:#ff0000;stroke-width:0.216;stroke-linecap:butt;stroke-linejoin:miter;stroke-dasharray:none"
     id="path1-9" /><path
     d="m 769.54466,1173.896 v 59.1684 h -110.5718 v -59.1684 z m -8.505,50.6633 v -42.1582 h -93.5612 v 42.1582 z"
     style="fill:none;stroke:#ff0000;stroke-width:0.216;stroke-linecap:butt;stroke-linejoin:miter;stroke-dasharray:none"
     id="path2-2" /><path
     d="m 548.8146,1171.4767 v 59.169 H 438.2428 v -59.169 z m -8.505,50.6642 v -42.1583 H 446.749 v 42.1583 z"
     style="fill:none;stroke:#ff0000;stroke-width:0.216;stroke-linecap:butt;stroke-linejoin:miter;stroke-dasharray:none"
     id="path3-7" /><path
     d="m 800.29734,1012.5488 4.4303,-0.29 4.356,-0.8671 4.2038,-1.4273 3.9821,-1.9638 3.6918,-2.4673 3.3393,-2.9268 2.927,-3.33923 2.4667,-3.69177 1.9641,-3.98177 1.427,-4.2052 0.866,-4.3552 0.2911,-4.4305 v -83.6034 h 28.3521 v -8.5062 h 28.3522 v 8.5062 h 93.3896 v -8.5062 h 28.35216 v 8.5062 h 28.3518 v 28.351 h -8.5045 v 28.3519 h 8.5045 v 133.42807 h -8.5045 v 28.3522 h 8.5045 v 28.3518 H 550.31254 v -28.3518 h 8.5059 v -28.3522 h -8.5059 v -79.7609 l 19.7609,-8.591 -3.3911,-7.80007 -7.8639,3.4189 v -40.695 h -8.5059 v -28.3519 h 8.5059 v -28.351 h 29.0872 v -8.5062 h 28.3518 v 8.5062 h 93.3911 v -8.5062 h 28.3518 v 8.5062 h 28.3513 v 83.6034 l 0.2908,4.4305 0.866,4.3552 1.427,4.2052 1.9641,3.98177 2.467,3.69177 2.9279,3.33923 3.3381,2.9268 3.6918,2.4673 3.9833,1.9638 4.2038,1.4273 4.3551,0.8671 z m -143.7468,98.9447 h 42.5282 v -42.158 h -42.5282 v -8.5051 h -8.5062 v 8.5051 h -42.5276 v 42.158 h 42.5276 v 8.5051 h 8.5062 z m -69.6201,-113.4867 39.8121,30.2728 h 51.1098 l 39.812,-30.2728 v -73.37707 h -51.1909 v 8.5051 h -28.3518 v -8.5051 h -51.1912 z m 296.0003,0 39.812,30.2728 h 51.1087 l 39.81196,-30.2728 v -73.37707 h -51.18966 v 8.5051 h -28.3533 v -8.5051 h -51.1897 z m 18.5848,113.4867 h 42.529 v 8.5051 h 8.5051 v -8.5051 h 42.5276 v -42.158 h -42.5276 v -8.5051 h -8.5051 v 8.5051 h -42.529 z"
     style="fill:none;stroke:#ff0000;stroke-width:0.216;stroke-linecap:butt;stroke-linejoin:miter;stroke-dasharray:none"
     id="path4-9" /><path
     d="M 535.42155,894.57508 V 1140.5974 H 15.663495 V 974.14328 h 17.010998 v -49.5822 H 15.663495 v -29.986 z M 24.169393,1036.7814 v 28.3518 h 8.5051 v -28.3518 z m 482.221957,0 v 28.3518 h 8.5062 v -28.3518 z m 0,-113.80512 v 28.351 h 8.5062 v -28.351 z"
     style="fill:none;stroke:#ff0000;stroke-width:0.216;stroke-linecap:butt;stroke-linejoin:miter;stroke-dasharray:none"
     id="path5-5" /><path
     d="m 1059.6102,1279.5117 v -162.2789 h 294.8161 v 28.3521 h 8.5057 v 28.3519 h -8.5057 v 48.8709 h 8.5057 v 28.3522 h -8.5057 v 28.3518 z m 11.2022,-108.4099 h 8.5051 v -22.682 h -8.5051 z m 0,63.0471 v 22.682 h 8.5051 v -22.682 z"
     style="fill:none;stroke:#ff0000;stroke-width:0.216;stroke-linecap:butt;stroke-linejoin:miter;stroke-dasharray:none"
     id="path6-4" /><path
     d="m 1057.2772,1102.1651 h 300.6264 v -28.3522 h 8.5059 v -28.351 h -8.5059 v -44.3931 h 8.5059 v -28.35206 h -8.5059 v -23.7518 h 8.5059 v -28.3521 h -8.5059 v -28.351 h -275.1095 v 99.5321 h -8.5048 v -99.5321 h -17.0121 z m 125.7231,-144.66416 -3.3911,-7.8001 20.8,-9.0431 3.392,7.799 z m -58.6049,16.206 3.3919,7.7998 -20.8012,9.0442 -3.3908,-7.7998 z m 222.167,-63.8332 v 16.9161 h -43.9971 v 8.5051 h -8.5059 v -8.5051 h -43.9971 v -16.9161 h 43.9971 v -8.5059 h 8.5059 v 8.5059 z m -22.9563,72.5851 3.391,-7.8001 20.801,9.044 -3.392,7.8001 z m -78.2037,-34.0021 3.3908,-7.799 20.8012,9.0431 -3.3922,7.8001 z"
     style="fill:none;stroke:#ff0000;stroke-width:0.216;stroke-linecap:butt;stroke-linejoin:miter;stroke-dasharray:none"
     id="path7-3" /><path
     d="m 808.88427,1172.5319 h 14.0641 v 8.506 h 5.671 v -8.506 h 14.063 v 8.506 h 5.6701 v -8.506 h 14.0638 v 8.506 h 5.6702 v 27.638 h 38.1359 v 23.7121 h -40.8581 l -2.6608,-0.21 -2.596,-0.6231 -2.4661,-1.021 -2.276,-1.3949 -2.0302,-1.734 -1.7339,-2.029 -1.3949,-2.276 -1.0211,-2.467 -0.623,-2.5951 -0.2098,-2.6609 v -17.3281 h -61.0591 v -10.4559 l 7.6819,-7.268 -5.8451,-6.179 8.2392,-7.793 5.8451,6.1789 v 8.506 h 5.6698 z"
     style="fill:none;stroke:#ff0000;stroke-width:0.216;stroke-linecap:butt;stroke-linejoin:miter;stroke-dasharray:none"
     id="path8-1" /><path
     d="m 565.28798,1167.3821 0.5193,-2.1623 0.8509,-2.0548 1.1634,-1.8973 1.4439,-1.692 1.692,-1.4445 1.8967,-1.1622 2.0554,-0.8498 2.1628,-0.5205 2.2167,-0.1737 h 48.2284 l 2.2178,0.1737 2.1629,0.5205 2.0554,0.8498 1.8966,1.1622 1.6909,1.4445 1.4451,1.692 1.1622,1.8973 0.8521,2.0548 0.5187,2.1623 0.1744,2.2178 v 66.1192 l 0.1749,2.2179 0.5187,2.162 0.851,2.0559 1.1633,1.8961 1.444,1.692 1.692,1.4448 1.8961,1.1622 2.0559,0.851 2.1617,0.519 2.2179,0.1749 h 216.6301 l 2.2241,0.087 2.211,0.2617 2.1832,0.434 2.143,0.6049 2.0892,0.7701 2.0205,0.9321 1.9434,1.0879 1.8496,1.2373 1.7493,1.3777 1.6347,1.5111 1.5115,1.635 1.3776,1.7479 1.2373,1.8513 1.0868,1.9417 0.9332,2.0223 0.7702,2.0888 0.6035,2.1419 0.4342,2.1843 0.2623,2.2097 0.087,2.2249 v 409.3163 l -0.087,2.224 -0.2623,2.2111 -0.4342,2.1829 -0.6035,2.143 -0.7702,2.088 -0.9332,2.022 -1.0868,1.942 -1.2373,1.8521 -1.3776,1.7479 -1.5115,1.6339 -1.6347,1.5111 -1.7493,1.378 -1.8496,1.2381 -1.9434,1.0868 -2.0205,0.9321 -2.0892,0.771 -2.143,0.604 -2.1832,0.4349 -2.211,0.2611 -2.2241,0.087 H 41.452312 l -2.2241,-0.087 -2.211,-0.2611 -2.183,-0.4349 -2.143,-0.604 -2.088,-0.771 -2.0222,-0.9321 -1.9418,-1.0868 -1.851,-1.2381 -1.749,-1.378 -1.635,-1.5111 -1.51,-1.6339 -1.379,-1.7479 -1.2371,-1.8521 -1.0879,-1.942 -0.9312,-2.022 -0.7707,-2.088 -0.6041,-2.143 -0.434,-2.1829 -0.2622,-2.2111 -0.088,-2.224 v -503.7866 l 0.088,-2.2243 0.2622,-2.211 0.434,-2.1833 0.6041,-2.143 0.7707,-2.0885 0.9312,-2.0211 1.0879,-1.9423 1.2371,-1.8505 1.379,-1.7495 1.51,-1.6339 1.635,-1.512 1.749,-1.3777 1.851,-1.237 1.9418,-1.0874 2.0222,-0.932 2.088,-0.7705 2.143,-0.6043 2.183,-0.4351 2.211,-0.2611 2.2241,-0.087 H 390.27638 l 2.2249,0.087 2.211,0.2611 2.183,0.4351 2.1427,0.6043 2.088,0.7705 2.0222,0.932 1.942,1.0874 1.8511,1.237 1.7489,1.3777 1.6339,1.512 1.5112,1.6339 1.3782,1.7495 1.2367,1.8505 1.088,1.9423 0.932,2.0211 0.771,2.0885 0.6041,2.143 0.434,2.1833 0.2622,2.211 0.087,2.2243 v 37.7669 l 0.088,2.224 0.2608,2.2108 0.4348,2.1841 0.6044,2.143 0.7698,2.088 0.9318,2.0219 1.0882,1.942 1.237,1.8513 1.378,1.7479 1.5111,1.635 1.6359,1.5109 1.7473,1.3779 1.8507,1.237 1.942,1.0883 2.022,0.9317 2.09,0.7702 2.1418,0.6052 2.1833,0.4337 2.2099,0.2608 2.2252,0.088 h 103.9569 l 2.2178,-0.1749 2.1631,-0.519 2.0549,-0.851 1.8972,-1.1622 1.6909,-1.4448 1.4451,-1.692 1.1622,-1.8961 0.8515,-2.0559 0.5193,-2.162 0.1738,-2.2179 v -66.1192 z m 242.0016,491.8291 v -8.5062 h -28.3521 v 8.5062 z m -453.8701,-418.731 v 28.3519 h 8.5045 v -28.3519 z m 0,353.5209 v 28.3521 h 8.5045 v -28.3521 z m 8.5045,-148.4079 v -28.3521 h -8.5045 v 28.3521 z m 150.8303,-130.489 h 28.3519 v -8.505 h -28.3519 z m 152.9462,-8.505 v 8.505 h 28.3518 v -8.505 z m -275.4241,8.505 h 28.3518 v -8.505 h -28.3518 z m 445.3648,153.6237 v 28.3524 h 8.5062 v -28.3524 z m 0,125.2732 v 28.3521 h 8.5062 v -28.3521 z m 0,-250.5442 v 28.3513 h 8.5062 v -28.3513 z m -19.846,-36.8577 h -28.3529 v 8.505 h 28.3529 z m -237.8307,-8.5062 h -12.8514 v 8.5062 h 12.8514 z m 63.7291,8.5062 v -8.5062 h -12.8503 v 8.5062 z M 69.804112,1268.8321 h 8.5059 v -28.3519 h -8.5059 z m 0,148.409 v 28.3521 h 8.5059 v -28.3521 z m 8.5059,205.1121 v -28.3521 h -8.5059 v 28.3521 z m 56.704298,36.858 v -8.5062 h -28.3522 v 8.5062 z m 224.09197,-8.5062 h -28.3521 v 8.5062 h 28.3521 z m 195.7397,0 v 8.5062 h 28.3515 v -8.5062 z"
     style="fill:none;stroke:#ff0000;stroke-width:0.216;stroke-linecap:butt;stroke-linejoin:miter;stroke-dasharray:none"
     id="path1-2" /></svg>
