<svg width="656.001mm" height="302.997mm" viewBox="0 0 656.001 302.997" xmlns="http://www.w3.org/2000/svg" version="1.1" preserveAspectRatio="xMidYMid meet"><g id="svgGroup" stroke-linecap="round" fill-rule="evenodd" font-size="9pt" stroke="#000" stroke-width="0.25mm" fill="none" style="stroke:#000;stroke-width:0.25mm;fill:none"><path d="M 14.501 299.997 L 23.5 299.997 L 23.5 302.997 L 32.499 302.997 L 32.499 299.997 L 41.501 299.997 L 41.501 302.997 L 50.5 302.997 L 50.5 299.997 L 59.5 299.997 L 59.5 302.997 L 68.499 302.997 L 68.499 299.997 L 77.5 299.997 L 77.5 302.997 L 86.5 302.997 L 86.5 299.997 L 95.499 299.997 L 95.499 302.997 L 104.501 302.997 L 104.501 299.997 L 113.5 299.997 L 113.5 302.997 L 122.499 302.997 L 122.499 299.997 L 131.501 299.997 L 131.501 302.997 L 140.5 302.997 L 140.5 299.997 L 149.499 299.997 L 149.499 302.997 L 158.499 302.997 L 158.499 299.997 L 167.5 299.997 L 167.5 302.997 L 176.5 302.997 L 176.5 299.997 L 185.499 299.997 L 185.499 302.997 L 200 302.997 L 200 293.498 L 197 293.498 L 197 284.498 L 200 284.498 L 200 275.497 L 197 275.497 L 197 266.497 L 200 266.497 L 200 257.498 L 197 257.498 L 197 248.496 L 200 248.496 L 200 239.497 L 197 239.497 L 197 230.498 L 200 230.498 L 200 221.496 L 197 221.496 L 197 212.497 L 200 212.497 L 200 202.997 L 101.501 202.997 L 101.501 251.496 L 98.499 251.496 L 98.499 202.997 L 0 202.997 L 0 212.497 L 3 212.497 L 3 221.496 L 0 221.496 L 0 230.498 L 3 230.498 L 3 239.497 L 0 239.497 L 0 248.496 L 3 248.496 L 3 257.498 L 0 257.498 L 0 266.497 L 3 266.497 L 3 275.497 L 0 275.497 L 0 284.498 L 3 284.498 L 3 293.498 L 0 293.498 L 0 302.997 L 14.501 302.997 L 14.501 299.997 Z" id="Front_outsideCutPath" stroke="#FF0000" stroke-width="0.1" style="stroke:#FF0000;stroke-width:0.1" vector-effect="non-scaling-stroke"/><path d="M 115.508 260.038 L 113.886 260.038 L 113.886 253.114 A 4.582 4.582 0 0 0 113.834 252.396 Q 113.774 252.017 113.644 251.716 A 1.928 1.928 0 0 0 113.291 251.161 A 1.828 1.828 0 0 0 112.541 250.683 Q 112.247 250.579 111.885 250.54 A 4.298 4.298 0 0 0 111.426 250.517 A 4.906 4.906 0 0 0 110.507 250.597 Q 109.514 250.786 108.965 251.425 Q 108.183 252.333 108.183 254.423 L 108.183 260.038 L 106.562 260.038 L 106.562 249.335 L 107.881 249.335 L 108.144 250.8 L 108.222 250.8 A 3.283 3.283 0 0 1 109.508 249.63 A 3.947 3.947 0 0 1 109.619 249.574 A 4.39 4.39 0 0 1 111.181 249.157 A 5.308 5.308 0 0 1 111.621 249.14 A 6.4 6.4 0 0 1 112.71 249.226 Q 113.852 249.424 114.531 250.072 Q 115.274 250.782 115.452 252.138 A 7.074 7.074 0 0 1 115.508 253.056 L 115.508 260.038 Z M 77.9 253.934 L 77.9 260.038 L 76.24 260.038 L 76.24 245.761 L 84.199 245.761 L 84.199 247.235 L 77.9 247.235 L 77.9 252.46 L 83.818 252.46 L 83.818 253.934 L 77.9 253.934 Z M 123.76 258.7 L 123.76 259.94 Q 123.496 260.067 122.983 260.15 Q 122.505 260.228 122.115 260.233 A 4.156 4.156 0 0 1 122.06 260.233 A 4.234 4.234 0 0 1 120.813 260.065 Q 119.441 259.642 119.082 258.152 A 5.096 5.096 0 0 1 118.955 256.962 L 118.955 250.595 L 117.422 250.595 L 117.422 249.813 L 118.955 249.14 L 119.638 246.854 L 120.576 246.854 L 120.576 249.335 L 123.681 249.335 L 123.681 250.595 L 120.576 250.595 L 120.576 256.893 Q 120.576 257.573 120.803 258.03 A 1.572 1.572 0 0 0 121.035 258.378 A 1.506 1.506 0 0 0 121.961 258.871 A 2.167 2.167 0 0 0 122.295 258.895 Q 122.724 258.895 123.125 258.832 Q 123.525 258.768 123.76 258.7 Z M 92.48 249.257 L 92.256 250.761 A 7.145 7.145 0 0 0 91.742 250.666 Q 91.486 250.629 91.258 250.618 A 3.802 3.802 0 0 0 91.084 250.614 A 2.809 2.809 0 0 0 89.009 251.51 A 3.843 3.843 0 0 0 88.862 251.669 A 3.702 3.702 0 0 0 87.969 253.747 A 4.921 4.921 0 0 0 87.939 254.296 L 87.939 260.038 L 86.318 260.038 L 86.318 249.335 L 87.656 249.335 L 87.842 251.317 L 87.92 251.317 A 5.474 5.474 0 0 1 88.532 250.443 A 4.182 4.182 0 0 1 89.355 249.706 A 3.232 3.232 0 0 1 91.201 249.14 A 7.442 7.442 0 0 1 91.867 249.168 A 5.432 5.432 0 0 1 92.48 249.257 Z M 103.572 256.306 A 8.374 8.374 0 0 0 103.72 254.677 A 9.514 9.514 0 0 0 103.717 254.419 Q 103.693 253.528 103.5 252.772 A 5.048 5.048 0 0 0 102.397 250.634 A 4.244 4.244 0 0 0 100.427 249.363 A 5.447 5.447 0 0 0 98.828 249.14 A 6.296 6.296 0 0 0 97.697 249.237 A 4.288 4.288 0 0 0 95.195 250.6 A 4.479 4.479 0 0 0 94.645 251.362 Q 93.887 252.684 93.887 254.677 A 8.11 8.11 0 0 0 93.988 255.99 A 5.997 5.997 0 0 0 94.492 257.626 A 5.328 5.328 0 0 0 94.61 257.857 A 4.389 4.389 0 0 0 96.211 259.559 A 4.514 4.514 0 0 0 97.247 260.02 A 5.206 5.206 0 0 0 98.76 260.233 A 6.295 6.295 0 0 0 99.859 260.141 A 4.322 4.322 0 0 0 102.402 258.764 Q 103.278 257.788 103.572 256.306 Z M 95.566 254.677 A 8.209 8.209 0 0 0 95.644 255.849 Q 95.73 256.445 95.912 256.927 A 3.401 3.401 0 0 0 96.387 257.802 A 2.657 2.657 0 0 0 98.117 258.821 A 4.026 4.026 0 0 0 98.799 258.876 Q 100.39 258.876 101.216 257.807 A 3.48 3.48 0 0 0 101.758 256.751 Q 101.917 256.263 101.987 255.668 A 8.539 8.539 0 0 0 102.041 254.677 Q 102.041 252.636 101.216 251.576 Q 100.39 250.517 98.779 250.517 A 3.858 3.858 0 0 0 97.819 250.629 A 2.582 2.582 0 0 0 96.377 251.561 Q 95.793 252.314 95.63 253.597 A 8.566 8.566 0 0 0 95.566 254.677 Z" id="Front_labelLayer" stroke="#777777" fill="#777777" style="stroke:#777777;fill:#777777" vector-effect="non-scaling-stroke"/><path d="M 224.501 299.997 L 233.5 299.997 L 233.5 302.997 L 242.502 302.997 L 242.502 299.997 L 251.501 299.997 L 251.501 302.997 L 260.5 302.997 L 260.5 299.997 L 269.502 299.997 L 269.502 302.997 L 278.501 302.997 L 278.501 299.997 L 287.5 299.997 L 287.5 302.997 L 296.5 302.997 L 296.5 299.997 L 305.501 299.997 L 305.501 302.997 L 314.501 302.997 L 314.501 299.997 L 323.5 299.997 L 323.5 302.997 L 332.501 302.997 L 332.501 299.997 L 341.501 299.997 L 341.501 302.997 L 350.5 302.997 L 350.5 299.997 L 359.502 299.997 L 359.502 302.997 L 368.501 302.997 L 368.501 299.997 L 377.5 299.997 L 377.5 302.997 L 386.499 302.997 L 386.499 299.997 L 395.501 299.997 L 395.501 302.997 L 404.5 302.997 L 404.5 299.997 L 413.5 299.997 L 413.5 302.997 L 422.501 302.997 L 422.501 299.997 L 431.501 299.997 L 431.501 302.997 L 440.5 302.997 L 440.5 299.997 L 449.999 299.997 L 449.999 293.498 L 453.002 293.498 L 453.002 284.498 L 449.999 284.498 L 449.999 275.497 L 453.002 275.497 L 453.002 266.497 L 449.999 266.497 L 449.999 257.498 L 453.002 257.498 L 453.002 248.496 L 449.999 248.496 L 449.999 239.497 L 453.002 239.497 L 453.002 230.498 L 449.999 230.498 L 449.999 221.496 L 453.002 221.496 L 453.002 212.497 L 449.999 212.497 L 449.999 202.997 L 329.502 202.997 L 329.502 251.496 L 326.499 251.496 L 326.499 202.997 L 206.002 202.997 L 206.002 212.497 L 203 212.497 L 203 221.496 L 206.002 221.496 L 206.002 230.498 L 203 230.498 L 203 239.497 L 206.002 239.497 L 206.002 248.496 L 203 248.496 L 203 257.498 L 206.002 257.498 L 206.002 266.497 L 203 266.497 L 203 275.497 L 206.002 275.497 L 206.002 284.498 L 203 284.498 L 203 293.498 L 206.002 293.498 L 206.002 299.997 L 215.501 299.997 L 215.501 302.997 L 224.501 302.997 L 224.501 299.997 Z" id="Left_outsideCutPath" stroke="#FF0000" stroke-width="0.1" style="stroke:#FF0000;stroke-width:0.1" vector-effect="non-scaling-stroke"/><path d="M 337.654 249.848 L 337.654 251.107 L 334.929 251.107 L 334.929 260.551 L 333.308 260.551 L 333.308 251.107 L 331.394 251.107 L 331.394 250.375 L 333.308 249.789 L 333.308 249.193 A 6.57 6.57 0 0 1 333.462 247.704 Q 333.936 245.674 335.877 245.322 A 4.927 4.927 0 0 1 336.755 245.248 A 5.22 5.22 0 0 1 337.494 245.304 Q 337.854 245.356 338.253 245.455 A 10.494 10.494 0 0 1 338.748 245.59 L 338.328 246.889 Q 337.662 246.674 337.134 246.611 A 3.486 3.486 0 0 0 336.726 246.586 A 2.186 2.186 0 0 0 336.199 246.645 A 1.404 1.404 0 0 0 335.369 247.196 Q 334.97 247.75 334.933 248.91 A 7.654 7.654 0 0 0 334.929 249.154 L 334.929 249.848 L 337.654 249.848 Z M 330.066 254.467 L 330.066 255.492 L 322.693 255.492 A 6.506 6.506 0 0 0 322.807 256.581 Q 322.924 257.175 323.158 257.643 A 3.044 3.044 0 0 0 323.645 258.353 Q 324.548 259.33 326.189 259.33 Q 327.918 259.33 329.607 258.607 L 329.607 260.053 Q 328.748 260.424 327.981 260.585 Q 327.214 260.746 326.131 260.746 A 6.299 6.299 0 0 1 324.554 260.559 A 4.461 4.461 0 0 1 322.385 259.301 A 4.771 4.771 0 0 1 321.244 257.205 Q 321.046 256.462 321.018 255.58 A 9.26 9.26 0 0 1 321.013 255.287 A 8.512 8.512 0 0 1 321.171 253.599 Q 321.461 252.164 322.288 251.176 A 4.154 4.154 0 0 1 325.315 249.666 A 5.731 5.731 0 0 1 325.711 249.652 A 4.939 4.939 0 0 1 327.101 249.838 A 3.758 3.758 0 0 1 328.894 250.976 A 4.533 4.533 0 0 1 329.921 253.047 A 6.598 6.598 0 0 1 330.066 254.467 Z M 319.431 260.551 L 311.472 260.551 L 311.472 246.273 L 313.132 246.273 L 313.132 259.047 L 319.431 259.047 L 319.431 260.551 Z M 344.529 259.213 L 344.529 260.453 Q 344.265 260.58 343.753 260.663 Q 343.274 260.741 342.885 260.746 A 4.156 4.156 0 0 1 342.83 260.746 A 4.234 4.234 0 0 1 341.582 260.578 Q 340.21 260.155 339.851 258.665 A 5.096 5.096 0 0 1 339.724 257.475 L 339.724 251.107 L 338.191 251.107 L 338.191 250.326 L 339.724 249.652 L 340.408 247.367 L 341.345 247.367 L 341.345 249.848 L 344.451 249.848 L 344.451 251.107 L 341.345 251.107 L 341.345 257.406 Q 341.345 258.085 341.572 258.543 A 1.572 1.572 0 0 0 341.804 258.891 A 1.506 1.506 0 0 0 342.73 259.383 A 2.167 2.167 0 0 0 343.064 259.408 Q 343.494 259.408 343.894 259.345 Q 344.295 259.281 344.529 259.213 Z M 322.732 254.174 L 328.328 254.174 A 5.524 5.524 0 0 0 328.261 253.286 Q 328.183 252.809 328.015 252.428 A 2.508 2.508 0 0 0 327.644 251.825 A 2.221 2.221 0 0 0 326.307 251.064 A 3.332 3.332 0 0 0 325.691 251.01 A 3.196 3.196 0 0 0 324.768 251.137 A 2.469 2.469 0 0 0 323.635 251.85 A 3.202 3.202 0 0 0 322.999 252.924 Q 322.837 253.365 322.764 253.897 A 6.124 6.124 0 0 0 322.732 254.174 Z" id="Left_labelLayer" stroke="#777777" fill="#777777" style="stroke:#777777;fill:#777777" vector-effect="non-scaling-stroke"/><path d="M 641.5 302.997 L 641.5 299.995 L 656.001 299.995 L 656.001 290.495 L 653.002 290.495 L 653.002 281.496 L 656.001 281.496 L 656.001 272.497 L 653.002 272.497 L 653.002 263.495 L 656.001 263.495 L 656.001 254.496 L 653.002 254.496 L 653.002 245.497 L 656.001 245.497 L 656.001 236.495 L 653.002 236.495 L 653.002 227.496 L 656.001 227.496 L 656.001 218.496 L 653.002 218.496 L 653.002 209.497 L 656.001 209.497 L 656.001 200.495 L 653.002 200.495 L 653.002 191.496 L 656.001 191.496 L 656.001 182.497 L 653.002 182.497 L 653.002 173.495 L 656.001 173.495 L 656.001 164.496 L 653.002 164.496 L 653.002 155.497 L 656.001 155.497 L 656.001 146.495 L 653.002 146.495 L 653.002 137.496 L 656.001 137.496 L 656.001 128.497 L 653.002 128.497 L 653.002 119.497 L 656.001 119.497 L 656.001 110.496 L 653.002 110.496 L 653.002 101.496 L 656.001 101.496 L 656.001 92.497 L 653.002 92.497 L 653.002 83.495 L 656.001 83.495 L 656.001 74.496 L 653.002 74.496 L 653.002 65.497 L 656.001 65.497 L 656.001 55.997 L 641.5 55.997 L 641.5 52.995 L 632.501 52.995 L 632.501 55.997 L 623.502 55.997 L 623.502 52.995 L 614.5 52.995 L 614.5 55.997 L 605.501 55.997 L 605.501 52.995 L 596.502 52.995 L 596.502 55.997 L 587.503 55.997 L 587.503 52.995 L 578.501 52.995 L 578.501 55.997 L 569.502 55.997 L 569.502 52.995 L 560.502 52.995 L 560.502 55.997 L 551.501 55.997 L 551.501 52.995 L 542.501 52.995 L 542.501 55.997 L 533.502 55.997 L 533.502 52.995 L 524.5 52.995 L 524.5 55.997 L 515.501 55.997 L 515.501 52.995 L 506.502 52.995 L 506.502 55.997 L 497.503 55.997 L 497.503 52.995 L 488.501 52.995 L 488.501 55.997 L 479.502 55.997 L 479.502 52.995 L 470.503 52.995 L 470.503 55.997 L 456.002 55.997 L 456.002 65.497 L 459.001 65.497 L 459.001 74.496 L 456.002 74.496 L 456.002 83.495 L 459.001 83.495 L 459.001 92.497 L 456.002 92.497 L 456.002 101.496 L 459.001 101.496 L 459.001 110.496 L 456.002 110.496 L 456.002 119.497 L 459.001 119.497 L 459.001 128.497 L 456.002 128.497 L 456.002 137.496 L 459.001 137.496 L 459.001 146.495 L 456.002 146.495 L 456.002 155.497 L 459.001 155.497 L 459.001 164.496 L 456.002 164.496 L 456.002 173.495 L 459.001 173.495 L 459.001 182.497 L 456.002 182.497 L 456.002 191.496 L 459.001 191.496 L 459.001 200.495 L 456.002 200.495 L 456.002 209.497 L 459.001 209.497 L 459.001 218.496 L 456.002 218.496 L 456.002 227.496 L 459.001 227.496 L 459.001 236.495 L 456.002 236.495 L 456.002 245.497 L 459.001 245.497 L 459.001 254.496 L 456.002 254.496 L 456.002 263.495 L 459.001 263.495 L 459.001 272.497 L 456.002 272.497 L 456.002 281.496 L 459.001 281.496 L 459.001 290.495 L 456.002 290.495 L 456.002 299.995 L 470.503 299.995 L 470.503 302.997 L 479.502 302.997 L 479.502 299.995 L 488.501 299.995 L 488.501 302.997 L 497.503 302.997 L 497.503 299.995 L 506.502 299.995 L 506.502 302.997 L 515.501 302.997 L 515.501 299.995 L 524.5 299.995 L 524.5 302.997 L 533.502 302.997 L 533.502 299.995 L 542.501 299.995 L 542.501 302.997 L 551.501 302.997 L 551.501 299.995 L 560.502 299.995 L 560.502 302.997 L 569.502 302.997 L 569.502 299.995 L 578.501 299.995 L 578.501 302.997 L 587.503 302.997 L 587.503 299.995 L 596.502 299.995 L 596.502 302.997 L 605.501 302.997 L 605.501 299.995 L 614.5 299.995 L 614.5 302.997 L 623.502 302.997 L 623.502 299.995 L 632.501 299.995 L 632.501 302.997 L 641.5 302.997 Z" id="Bottom_outsideCutPath" stroke="#FF0000" stroke-width="0.1" style="stroke:#FF0000;stroke-width:0.1" vector-effect="non-scaling-stroke"/><path d="M 622.261 192.078 L 619.019 192.078 L 619.019 178.152 A 9.565 9.565 0 0 0 618.922 176.746 Q 618.694 175.214 617.925 174.314 A 3.412 3.412 0 0 0 616.339 173.288 Q 615.774 173.106 615.085 173.055 A 7.526 7.526 0 0 0 614.527 173.035 A 8.343 8.343 0 0 0 612.829 173.196 Q 611.819 173.406 611.059 173.89 A 4.293 4.293 0 0 0 610.054 174.773 A 5.358 5.358 0 0 0 609.145 176.417 Q 608.613 177.911 608.609 180.091 A 17.968 17.968 0 0 0 608.609 180.125 L 608.609 192.078 L 605.366 192.078 L 605.366 178.152 A 9.565 9.565 0 0 0 605.27 176.746 Q 605.042 175.214 604.273 174.314 A 3.401 3.401 0 0 0 602.708 173.297 Q 601.908 173.035 600.855 173.035 A 8.053 8.053 0 0 0 599.189 173.196 Q 598.162 173.413 597.396 173.924 A 4.25 4.25 0 0 0 596.392 174.861 A 5.437 5.437 0 0 0 595.586 176.392 Q 594.976 178.117 594.976 180.847 L 594.976 192.078 L 591.734 192.078 L 591.734 170.671 L 594.37 170.671 L 594.898 173.601 L 595.054 173.601 Q 595.972 172.039 597.642 171.16 A 7.697 7.697 0 0 1 600.682 170.307 A 9.297 9.297 0 0 1 601.382 170.281 Q 606.402 170.281 607.945 173.914 L 608.101 173.914 A 6.77 6.77 0 0 1 610.651 171.382 A 8.133 8.133 0 0 1 610.874 171.257 A 8.206 8.206 0 0 1 613.885 170.342 A 10.232 10.232 0 0 1 615.015 170.281 A 11.27 11.27 0 0 1 617.059 170.454 Q 619.198 170.849 620.454 172.146 A 5.583 5.583 0 0 1 621.653 174.107 Q 622.261 175.734 622.261 178.113 L 622.261 192.078 Z M 489.742 192.078 L 489.742 163.523 L 497.808 163.523 Q 502.595 163.523 505.151 164.728 A 6.77 6.77 0 0 1 506.031 165.222 A 5.519 5.519 0 0 1 508.421 168.93 A 8.796 8.796 0 0 1 508.57 170.593 A 7.486 7.486 0 0 1 508.336 172.51 A 5.661 5.661 0 0 1 507.154 174.783 A 5.871 5.871 0 0 1 505.048 176.318 Q 504.147 176.719 503.023 176.921 L 503.023 177.117 A 11.478 11.478 0 0 1 505.714 177.892 Q 509.527 179.571 509.527 183.953 A 9.081 9.081 0 0 1 509.178 186.538 A 6.839 6.839 0 0 1 506.939 189.929 Q 504.759 191.739 501.116 192.024 A 18.122 18.122 0 0 1 499.703 192.078 L 489.742 192.078 Z M 549.175 189.402 L 549.175 191.882 A 3.189 3.189 0 0 1 548.797 192.032 Q 548.393 192.166 547.816 192.269 A 12.125 12.125 0 0 1 547.622 192.302 Q 546.665 192.457 545.887 192.468 A 8.312 8.312 0 0 1 545.777 192.468 Q 539.566 192.468 539.566 185.925 L 539.566 173.191 L 536.499 173.191 L 536.499 171.629 L 539.566 170.281 L 540.933 165.711 L 542.808 165.711 L 542.808 170.671 L 549.019 170.671 L 549.019 173.191 L 542.808 173.191 L 542.808 185.789 A 6.529 6.529 0 0 0 542.902 186.935 Q 543.015 187.564 543.261 188.062 A 3.145 3.145 0 0 0 543.726 188.757 A 3.012 3.012 0 0 0 545.578 189.743 A 4.333 4.333 0 0 0 546.246 189.793 A 10.648 10.648 0 0 0 547.805 189.681 A 9.812 9.812 0 0 0 547.906 189.666 Q 548.706 189.539 549.175 189.402 Z M 563.296 189.402 L 563.296 191.882 A 3.189 3.189 0 0 1 562.918 192.032 Q 562.515 192.166 561.937 192.269 A 12.125 12.125 0 0 1 561.744 192.302 Q 560.786 192.457 560.008 192.468 A 8.312 8.312 0 0 1 559.898 192.468 Q 553.687 192.468 553.687 185.925 L 553.687 173.191 L 550.62 173.191 L 550.62 171.629 L 553.687 170.281 L 555.054 165.711 L 556.929 165.711 L 556.929 170.671 L 563.14 170.671 L 563.14 173.191 L 556.929 173.191 L 556.929 185.789 A 6.529 6.529 0 0 0 557.023 186.935 Q 557.136 187.564 557.382 188.062 A 3.145 3.145 0 0 0 557.847 188.757 A 3.012 3.012 0 0 0 559.699 189.743 A 4.333 4.333 0 0 0 560.367 189.793 A 10.648 10.648 0 0 0 561.926 189.681 A 9.812 9.812 0 0 0 562.027 189.666 Q 562.828 189.539 563.296 189.402 Z M 533.35 184.613 A 16.747 16.747 0 0 0 533.648 181.355 A 19.028 19.028 0 0 0 533.641 180.84 Q 533.513 176.105 531.001 173.269 A 8.487 8.487 0 0 0 527.061 170.728 A 10.895 10.895 0 0 0 523.863 170.281 A 12.592 12.592 0 0 0 521.601 170.475 A 8.576 8.576 0 0 0 516.597 173.201 A 8.957 8.957 0 0 0 515.497 174.726 Q 514.649 176.203 514.275 178.099 A 16.834 16.834 0 0 0 513.98 181.355 A 16.219 16.219 0 0 0 514.184 183.982 A 11.994 11.994 0 0 0 515.191 187.253 A 10.656 10.656 0 0 0 515.427 187.716 A 8.777 8.777 0 0 0 518.628 191.121 Q 520.855 192.468 523.726 192.468 Q 528.374 192.468 531.011 189.529 A 9.044 9.044 0 0 0 532.088 188.049 Q 532.967 186.546 533.35 184.613 Z M 585.753 184.613 A 16.747 16.747 0 0 0 586.05 181.355 A 19.028 19.028 0 0 0 586.043 180.84 Q 585.915 176.105 583.404 173.269 A 8.487 8.487 0 0 0 579.463 170.728 A 10.895 10.895 0 0 0 576.265 170.281 A 12.592 12.592 0 0 0 574.003 170.475 A 8.576 8.576 0 0 0 568.999 173.201 A 8.957 8.957 0 0 0 567.899 174.726 Q 567.052 176.203 566.678 178.099 A 16.834 16.834 0 0 0 566.382 181.355 A 16.219 16.219 0 0 0 566.586 183.982 A 11.994 11.994 0 0 0 567.593 187.253 A 10.656 10.656 0 0 0 567.829 187.716 A 8.777 8.777 0 0 0 571.031 191.121 Q 573.257 192.468 576.128 192.468 Q 580.777 192.468 583.413 189.529 A 9.044 9.044 0 0 0 584.49 188.049 Q 585.369 186.546 585.753 184.613 Z M 517.339 181.355 Q 517.339 185.457 518.98 187.605 A 5.314 5.314 0 0 0 522.441 189.643 A 8.052 8.052 0 0 0 523.804 189.753 A 7.531 7.531 0 0 0 525.791 189.506 A 5.241 5.241 0 0 0 528.638 187.615 A 6.96 6.96 0 0 0 529.722 185.504 Q 530.041 184.528 530.18 183.338 A 17.078 17.078 0 0 0 530.289 181.355 A 16.177 16.177 0 0 0 530.135 179.05 Q 529.966 177.876 529.609 176.926 A 6.675 6.675 0 0 0 528.638 175.154 A 5.333 5.333 0 0 0 525.322 173.176 A 8.177 8.177 0 0 0 523.765 173.035 A 7.716 7.716 0 0 0 521.844 173.26 A 5.164 5.164 0 0 0 518.96 175.125 A 6.704 6.704 0 0 0 517.918 177.138 Q 517.611 178.064 517.467 179.196 A 17.133 17.133 0 0 0 517.339 181.355 Z M 569.742 181.355 Q 569.742 185.457 571.382 187.605 A 5.314 5.314 0 0 0 574.843 189.643 A 8.052 8.052 0 0 0 576.206 189.753 A 7.531 7.531 0 0 0 578.193 189.506 A 5.241 5.241 0 0 0 581.04 187.615 A 6.96 6.96 0 0 0 582.124 185.504 Q 582.443 184.528 582.582 183.338 A 17.078 17.078 0 0 0 582.691 181.355 A 16.177 16.177 0 0 0 582.538 179.05 Q 582.368 177.876 582.012 176.926 A 6.675 6.675 0 0 0 581.04 175.154 A 5.333 5.333 0 0 0 577.724 173.176 A 8.177 8.177 0 0 0 576.167 173.035 A 7.716 7.716 0 0 0 574.246 173.26 A 5.164 5.164 0 0 0 571.363 175.125 A 6.704 6.704 0 0 0 570.321 177.138 Q 570.013 178.064 569.869 179.196 A 17.133 17.133 0 0 0 569.742 181.355 Z M 498.746 178.562 L 493.062 178.562 L 493.062 189.246 L 499.019 189.246 A 14.292 14.292 0 0 0 500.921 189.128 Q 502.995 188.848 504.224 187.908 A 4.243 4.243 0 0 0 505.741 185.59 Q 505.972 184.754 505.972 183.718 A 6.229 6.229 0 0 0 505.798 182.196 A 3.996 3.996 0 0 0 504.185 179.812 Q 502.472 178.614 499.044 178.564 A 20.676 20.676 0 0 0 498.746 178.562 Z M 493.062 166.394 L 493.062 175.75 L 498.531 175.75 Q 501.492 175.75 503.053 174.967 A 4.003 4.003 0 0 0 503.589 174.646 Q 505.132 173.543 505.132 170.925 A 5.248 5.248 0 0 0 504.967 169.562 A 3.432 3.432 0 0 0 503.414 167.459 A 5.572 5.572 0 0 0 502.104 166.886 Q 500.785 166.483 498.835 166.41 A 23.879 23.879 0 0 0 497.945 166.394 L 493.062 166.394 Z" id="Bottom_labelLayer" stroke="#777777" fill="#777777" style="stroke:#777777;fill:#777777" vector-effect="non-scaling-stroke"/><path d="M 14.501 196.998 L 23.5 196.998 L 23.5 199.997 L 32.499 199.997 L 32.499 196.998 L 41.501 196.998 L 41.501 199.997 L 50.5 199.997 L 50.5 196.998 L 59.5 196.998 L 59.5 199.997 L 68.499 199.997 L 68.499 196.998 L 77.5 196.998 L 77.5 199.997 L 86.5 199.997 L 86.5 196.998 L 95.499 196.998 L 95.499 199.997 L 104.501 199.997 L 104.501 196.998 L 113.5 196.998 L 113.5 199.997 L 122.499 199.997 L 122.499 196.998 L 131.501 196.998 L 131.501 199.997 L 140.5 199.997 L 140.5 196.998 L 149.499 196.998 L 149.499 199.997 L 158.499 199.997 L 158.499 196.998 L 167.5 196.998 L 167.5 199.997 L 176.5 199.997 L 176.5 196.998 L 185.499 196.998 L 185.499 199.997 L 200 199.997 L 200 190.498 L 197 190.498 L 197 181.499 L 200 181.499 L 200 172.497 L 197 172.497 L 197 163.498 L 200 163.498 L 200 154.498 L 197 154.498 L 197 145.497 L 200 145.497 L 200 136.497 L 197 136.497 L 197 127.498 L 200 127.498 L 200 118.496 L 197 118.496 L 197 109.497 L 200 109.497 L 200 99.998 L 101.501 99.998 L 101.501 148.496 L 98.499 148.496 L 98.499 99.998 L 0 99.998 L 0 109.497 L 3 109.497 L 3 118.496 L 0 118.496 L 0 127.498 L 3 127.498 L 3 136.497 L 0 136.497 L 0 145.497 L 3 145.497 L 3 154.498 L 0 154.498 L 0 163.498 L 3 163.498 L 3 172.497 L 0 172.497 L 0 181.499 L 3 181.499 L 3 190.498 L 0 190.498 L 0 199.997 L 14.501 199.997 L 14.501 196.998 Z" id="Back_outsideCutPath" stroke="#FF0000" stroke-width="0.1" style="stroke:#FF0000;stroke-width:0.1" vector-effect="non-scaling-stroke"/><path d="M 113.921 152.019 L 113.999 152.019 A 9.597 9.597 0 0 1 114.236 151.698 Q 114.634 151.181 115.278 150.456 L 118.735 146.794 L 120.659 146.794 L 116.323 151.355 L 120.962 157.497 L 118.999 157.497 L 115.219 152.439 L 113.999 153.493 L 113.999 157.497 L 112.397 157.497 L 112.397 142.302 L 113.999 142.302 L 113.999 150.359 A 10.803 10.803 0 0 1 113.994 150.664 Q 113.98 151.164 113.923 151.978 A 67.379 67.379 0 0 1 113.921 152.019 Z M 79.038 157.497 L 79.038 143.22 L 83.071 143.22 Q 85.465 143.22 86.743 143.823 A 3.385 3.385 0 0 1 87.182 144.07 A 2.76 2.76 0 0 1 88.378 145.924 A 4.398 4.398 0 0 1 88.452 146.755 A 3.743 3.743 0 0 1 88.335 147.713 A 2.83 2.83 0 0 1 87.744 148.85 A 2.936 2.936 0 0 1 86.691 149.617 Q 86.283 149.799 85.783 149.899 A 5.415 5.415 0 0 1 85.679 149.919 L 85.679 150.017 Q 88.712 150.536 88.916 153.061 A 4.65 4.65 0 0 1 88.93 153.435 A 4.541 4.541 0 0 1 88.756 154.727 A 3.42 3.42 0 0 1 87.637 156.423 A 4.314 4.314 0 0 1 86.099 157.225 Q 85.19 157.497 84.018 157.497 L 79.038 157.497 Z M 99.536 157.497 L 98.335 157.497 L 98.012 155.974 L 97.934 155.974 Q 97.369 156.684 96.806 157.07 A 2.987 2.987 0 0 1 96.338 157.336 A 3.738 3.738 0 0 1 95.566 157.58 Q 95.021 157.693 94.35 157.693 A 4.975 4.975 0 0 1 93.338 157.596 Q 92.719 157.467 92.244 157.168 A 2.792 2.792 0 0 1 91.855 156.872 A 2.665 2.665 0 0 1 91.052 155.467 A 4.079 4.079 0 0 1 90.952 154.538 A 2.805 2.805 0 0 1 92.547 151.891 Q 93.735 151.259 95.808 151.153 A 15.836 15.836 0 0 1 96.138 151.14 L 97.954 151.081 L 97.954 150.417 Q 97.954 149.157 97.412 148.557 A 1.646 1.646 0 0 0 96.738 148.117 Q 96.468 148.019 96.134 147.981 A 4.005 4.005 0 0 0 95.679 147.956 A 5.278 5.278 0 0 0 94.464 148.108 Q 93.907 148.24 93.3 148.487 A 10.857 10.857 0 0 0 92.651 148.777 L 92.153 147.536 A 7.474 7.474 0 0 1 93.596 146.943 A 8.508 8.508 0 0 1 93.887 146.863 A 7.507 7.507 0 0 1 95.776 146.618 A 6.847 6.847 0 0 1 96.819 146.692 Q 97.355 146.775 97.783 146.951 A 2.759 2.759 0 0 1 98.613 147.468 A 2.567 2.567 0 0 1 99.275 148.49 Q 99.43 148.909 99.493 149.431 A 6.379 6.379 0 0 1 99.536 150.193 L 99.536 157.497 Z M 110.014 147.156 L 109.516 148.532 Q 108.979 148.318 108.345 148.176 A 6.696 6.696 0 0 0 107.835 148.082 Q 107.587 148.046 107.366 148.037 A 3.593 3.593 0 0 0 107.221 148.034 A 3.596 3.596 0 0 0 105.761 148.309 Q 103.96 149.103 103.96 152.195 A 7.851 7.851 0 0 0 104.037 153.338 Q 104.123 153.917 104.303 154.388 A 3.362 3.362 0 0 0 104.756 155.222 A 2.575 2.575 0 0 0 106.424 156.219 A 3.922 3.922 0 0 0 107.114 156.277 A 6.786 6.786 0 0 0 108.986 156.004 A 8.379 8.379 0 0 0 109.858 155.7 L 109.858 157.136 A 4.611 4.611 0 0 1 108.73 157.535 Q 108.209 157.651 107.603 157.682 A 8.89 8.89 0 0 1 107.153 157.693 A 6.059 6.059 0 0 1 105.679 157.524 A 4.108 4.108 0 0 1 103.554 156.262 A 4.689 4.689 0 0 1 102.579 154.471 Q 102.364 153.76 102.304 152.905 A 9.802 9.802 0 0 1 102.28 152.214 A 8.945 8.945 0 0 1 102.419 150.588 Q 102.703 149.049 103.574 148.064 A 4.198 4.198 0 0 1 105.872 146.742 A 6.363 6.363 0 0 1 107.261 146.599 A 7.316 7.316 0 0 1 108.803 146.765 A 8.091 8.091 0 0 1 109.253 146.874 Q 109.705 146.999 110.005 147.151 A 2.415 2.415 0 0 1 110.014 147.156 Z M 83.54 150.739 L 80.698 150.739 L 80.698 156.081 L 83.677 156.081 A 7.146 7.146 0 0 0 84.628 156.022 Q 85.665 155.883 86.279 155.412 Q 87.112 154.775 87.151 153.449 A 4.482 4.482 0 0 0 87.153 153.318 A 3.115 3.115 0 0 0 87.066 152.556 A 1.998 1.998 0 0 0 86.26 151.364 Q 85.403 150.765 83.689 150.741 A 10.338 10.338 0 0 0 83.54 150.739 Z M 80.698 144.656 L 80.698 149.333 L 83.432 149.333 A 8.897 8.897 0 0 0 84.297 149.294 Q 85.395 149.187 85.962 148.781 Q 86.641 148.296 86.722 147.222 A 4.004 4.004 0 0 0 86.733 146.921 A 2.624 2.624 0 0 0 86.65 146.24 A 1.716 1.716 0 0 0 85.874 145.188 A 2.786 2.786 0 0 0 85.219 144.901 Q 84.559 144.7 83.585 144.664 A 11.94 11.94 0 0 0 83.139 144.656 L 80.698 144.656 Z M 97.915 153.2 L 97.915 152.234 L 96.294 152.302 A 11.903 11.903 0 0 0 95.343 152.371 Q 94.405 152.48 93.817 152.74 A 2.49 2.49 0 0 0 93.506 152.903 A 1.73 1.73 0 0 0 92.681 154.157 A 2.56 2.56 0 0 0 92.651 154.558 A 2.317 2.317 0 0 0 92.708 155.089 Q 92.805 155.498 93.063 155.779 A 1.444 1.444 0 0 0 93.183 155.896 A 1.765 1.765 0 0 0 93.844 156.247 Q 94.209 156.355 94.673 156.355 A 4.463 4.463 0 0 0 95.637 156.257 Q 96.483 156.069 97.051 155.525 A 2.715 2.715 0 0 0 97.808 154.169 Q 97.913 153.733 97.915 153.217 A 5.163 5.163 0 0 0 97.915 153.2 Z" id="Back_labelLayer" stroke="#777777" fill="#777777" style="stroke:#777777;fill:#777777" vector-effect="non-scaling-stroke"/><path d="M 224.501 196.998 L 233.5 196.998 L 233.5 199.997 L 242.502 199.997 L 242.502 196.998 L 251.501 196.998 L 251.501 199.997 L 260.5 199.997 L 260.5 196.998 L 269.502 196.998 L 269.502 199.997 L 278.501 199.997 L 278.501 196.998 L 287.5 196.998 L 287.5 199.997 L 296.5 199.997 L 296.5 196.998 L 305.501 196.998 L 305.501 199.997 L 314.501 199.997 L 314.501 196.998 L 323.5 196.998 L 323.5 199.997 L 332.501 199.997 L 332.501 196.998 L 341.501 196.998 L 341.501 199.997 L 350.5 199.997 L 350.5 196.998 L 359.502 196.998 L 359.502 199.997 L 368.501 199.997 L 368.501 196.998 L 377.5 196.998 L 377.5 199.997 L 386.499 199.997 L 386.499 196.998 L 395.501 196.998 L 395.501 199.997 L 404.5 199.997 L 404.5 196.998 L 413.5 196.998 L 413.5 199.997 L 422.501 199.997 L 422.501 196.998 L 431.501 196.998 L 431.501 199.997 L 440.5 199.997 L 440.5 196.998 L 449.999 196.998 L 449.999 190.498 L 453.002 190.498 L 453.002 181.499 L 449.999 181.499 L 449.999 172.497 L 453.002 172.497 L 453.002 163.498 L 449.999 163.498 L 449.999 154.498 L 453.002 154.498 L 453.002 145.497 L 449.999 145.497 L 449.999 136.497 L 453.002 136.497 L 453.002 127.498 L 449.999 127.498 L 449.999 118.496 L 453.002 118.496 L 453.002 109.497 L 449.999 109.497 L 449.999 99.998 L 329.502 99.998 L 329.502 148.496 L 326.499 148.496 L 326.499 99.998 L 206.002 99.998 L 206.002 109.497 L 203 109.497 L 203 118.496 L 206.002 118.496 L 206.002 127.498 L 203 127.498 L 203 136.497 L 206.002 136.497 L 206.002 145.497 L 203 145.497 L 203 154.498 L 206.002 154.498 L 206.002 163.498 L 203 163.498 L 203 172.497 L 206.002 172.497 L 206.002 181.499 L 203 181.499 L 203 190.498 L 206.002 190.498 L 206.002 196.998 L 215.501 196.998 L 215.501 199.997 L 224.501 199.997 L 224.501 196.998 Z" id="Right_outsideCutPath" stroke="#FF0000" stroke-width="0.1" style="stroke:#FF0000;stroke-width:0.1" vector-effect="non-scaling-stroke"/><path d="M 342.415 155.193 L 340.794 155.193 L 340.794 148.269 A 4.582 4.582 0 0 0 340.741 147.55 Q 340.681 147.172 340.552 146.87 A 1.928 1.928 0 0 0 340.198 146.316 A 1.828 1.828 0 0 0 339.448 145.837 Q 339.154 145.734 338.792 145.695 A 4.298 4.298 0 0 0 338.333 145.671 Q 336.643 145.671 335.867 146.589 A 2.697 2.697 0 0 0 335.409 147.4 Q 335.09 148.258 335.09 149.597 L 335.09 155.193 L 333.469 155.193 L 333.469 139.997 L 335.09 139.997 L 335.09 144.597 A 14.583 14.583 0 0 1 335.08 145.157 Q 335.07 145.419 335.05 145.645 A 6.341 6.341 0 0 1 335.012 145.974 L 335.11 145.974 A 3.239 3.239 0 0 1 336.245 144.882 A 3.957 3.957 0 0 1 336.472 144.758 A 4.162 4.162 0 0 1 337.838 144.353 A 5.261 5.261 0 0 1 338.489 144.314 A 6.577 6.577 0 0 1 339.594 144.4 Q 340.181 144.501 340.647 144.717 A 2.922 2.922 0 0 1 341.433 145.246 A 2.823 2.823 0 0 1 342.129 146.34 Q 342.415 147.115 342.415 148.21 L 342.415 155.193 Z M 327.571 144.49 L 331.272 144.49 L 331.272 145.515 L 329.29 145.749 A 2.634 2.634 0 0 1 329.518 146.089 Q 329.618 146.264 329.709 146.474 A 4.997 4.997 0 0 1 329.778 146.643 A 3.119 3.119 0 0 1 329.963 147.388 A 4.005 4.005 0 0 1 329.993 147.888 A 3.716 3.716 0 0 1 329.822 149.04 A 3.006 3.006 0 0 1 328.919 150.398 A 3.595 3.595 0 0 1 327.504 151.143 Q 326.819 151.335 325.969 151.335 A 5.21 5.21 0 0 1 325.367 151.302 A 4.399 4.399 0 0 1 325.071 151.257 Q 324.036 151.804 324.036 152.634 A 0.84 0.84 0 0 0 324.078 152.909 Q 324.16 153.146 324.397 153.283 A 1.137 1.137 0 0 0 324.649 153.387 Q 325.012 153.493 325.637 153.493 L 327.532 153.493 A 6.636 6.636 0 0 1 328.54 153.565 Q 329.067 153.646 329.492 153.819 A 2.93 2.93 0 0 1 330.203 154.226 A 2.372 2.372 0 0 1 331.084 155.737 A 3.562 3.562 0 0 1 331.135 156.355 Q 331.135 158.097 329.765 159.028 A 3.857 3.857 0 0 1 329.71 159.065 A 4.862 4.862 0 0 1 328.456 159.633 Q 327.839 159.821 327.085 159.912 A 12.849 12.849 0 0 1 325.549 159.997 Q 323.45 159.997 322.312 159.216 A 2.584 2.584 0 0 1 321.479 158.312 Q 321.213 157.818 321.179 157.191 A 3.423 3.423 0 0 1 321.174 157.009 A 2.479 2.479 0 0 1 321.799 155.32 A 2.831 2.831 0 0 1 322.772 154.611 A 4.012 4.012 0 0 1 323.557 154.353 A 1.682 1.682 0 0 1 322.904 153.825 A 1.998 1.998 0 0 1 322.869 153.777 Q 322.59 153.386 322.59 152.868 A 1.854 1.854 0 0 1 322.684 152.271 A 1.643 1.643 0 0 1 322.903 151.843 A 2.32 2.32 0 0 1 323.209 151.498 Q 323.372 151.345 323.582 151.196 A 5.092 5.092 0 0 1 323.889 150.993 A 2.842 2.842 0 0 1 322.655 150.005 A 3.522 3.522 0 0 1 322.537 149.831 A 3.351 3.351 0 0 1 322.022 148.216 A 4.09 4.09 0 0 1 322.014 147.956 A 4.684 4.684 0 0 1 322.138 146.849 A 3.081 3.081 0 0 1 323.069 145.246 Q 323.98 144.424 325.547 144.312 A 7.16 7.16 0 0 1 326.057 144.294 A 6.214 6.214 0 0 1 326.879 144.346 A 4.732 4.732 0 0 1 327.571 144.49 Z M 309.973 149.255 L 306.995 149.255 L 306.995 155.193 L 305.335 155.193 L 305.335 140.915 L 309.251 140.915 A 10.965 10.965 0 0 1 310.62 140.995 Q 312.144 141.187 313.034 141.845 A 3.2 3.2 0 0 1 313.132 141.921 A 3.219 3.219 0 0 1 314.249 143.718 Q 314.383 144.26 314.387 144.907 A 6.457 6.457 0 0 1 314.387 144.949 A 4.233 4.233 0 0 1 314.079 146.608 Q 313.624 147.686 312.499 148.334 A 5.706 5.706 0 0 1 311.516 148.777 L 315.393 155.193 L 313.43 155.193 L 309.973 149.255 Z M 350.667 153.855 L 350.667 155.095 Q 350.403 155.222 349.89 155.305 Q 349.412 155.382 349.022 155.388 A 4.156 4.156 0 0 1 348.967 155.388 A 4.234 4.234 0 0 1 347.72 155.22 Q 346.348 154.797 345.989 153.307 A 5.096 5.096 0 0 1 345.862 152.116 L 345.862 145.749 L 344.329 145.749 L 344.329 144.968 L 345.862 144.294 L 346.546 142.009 L 347.483 142.009 L 347.483 144.49 L 350.588 144.49 L 350.588 145.749 L 347.483 145.749 L 347.483 152.048 Q 347.483 152.727 347.71 153.185 A 1.572 1.572 0 0 0 347.942 153.533 A 1.506 1.506 0 0 0 348.868 154.025 A 2.167 2.167 0 0 0 349.202 154.05 Q 349.631 154.05 350.032 153.987 Q 350.432 153.923 350.667 153.855 Z M 319.075 144.49 L 319.075 155.193 L 317.454 155.193 L 317.454 144.49 L 319.075 144.49 Z M 306.995 142.37 L 306.995 147.829 L 309.27 147.829 Q 311.028 147.829 311.848 147.131 A 2.221 2.221 0 0 0 312.548 146.003 Q 312.65 145.639 312.666 145.201 A 4.547 4.547 0 0 0 312.669 145.036 A 3.771 3.771 0 0 0 312.597 144.275 Q 312.506 143.833 312.298 143.501 A 1.854 1.854 0 0 0 311.834 142.995 A 2.536 2.536 0 0 0 311.14 142.64 Q 310.47 142.407 309.476 142.375 A 10.12 10.12 0 0 0 309.153 142.37 L 306.995 142.37 Z M 327.014 154.949 L 325.071 154.949 A 3.726 3.726 0 0 0 324.399 155.005 Q 324.018 155.075 323.717 155.231 A 1.899 1.899 0 0 0 323.352 155.476 A 1.708 1.708 0 0 0 322.791 156.444 A 2.594 2.594 0 0 0 322.737 156.99 A 1.628 1.628 0 0 0 322.844 157.593 Q 323.017 158.031 323.469 158.308 A 2.596 2.596 0 0 0 324.108 158.582 Q 324.71 158.756 325.556 158.757 A 8.225 8.225 0 0 0 325.569 158.757 A 10.898 10.898 0 0 0 326.633 158.709 Q 327.7 158.604 328.37 158.27 A 2.692 2.692 0 0 0 328.591 158.147 A 2.365 2.365 0 0 0 329.14 157.688 A 1.772 1.772 0 0 0 329.573 156.491 A 2.193 2.193 0 0 0 329.533 156.056 Q 329.426 155.53 329.036 155.285 A 1.538 1.538 0 0 0 328.671 155.126 Q 328.283 155.007 327.668 154.968 A 10.315 10.315 0 0 0 327.014 154.949 Z M 323.616 147.917 A 3.164 3.164 0 0 0 323.681 148.581 Q 323.769 148.992 323.977 149.301 A 1.734 1.734 0 0 0 324.251 149.617 Q 324.822 150.136 325.799 150.187 A 4.174 4.174 0 0 0 326.018 150.193 Q 327.892 150.193 328.286 148.756 A 3.283 3.283 0 0 0 328.391 147.888 A 3.486 3.486 0 0 0 328.272 146.933 Q 327.967 145.863 326.879 145.579 A 3.526 3.526 0 0 0 325.989 145.476 A 3.402 3.402 0 0 0 325.296 145.542 Q 324.871 145.631 324.547 145.837 A 1.866 1.866 0 0 0 324.231 146.091 A 1.946 1.946 0 0 0 323.76 146.884 Q 323.616 147.331 323.616 147.917 Z M 317.34 141.292 A 1.796 1.796 0 0 0 317.317 141.589 A 1.914 1.914 0 0 0 317.325 141.772 Q 317.365 142.183 317.59 142.405 A 0.91 0.91 0 0 0 317.92 142.614 A 1.03 1.03 0 0 0 318.274 142.673 Q 318.665 142.673 318.948 142.405 Q 319.231 142.136 319.231 141.589 A 1.854 1.854 0 0 0 319.223 141.414 Q 319.208 141.254 319.164 141.123 A 0.819 0.819 0 0 0 318.948 140.779 Q 318.665 140.515 318.274 140.515 A 1.238 1.238 0 0 0 318.192 140.518 A 0.937 0.937 0 0 0 317.59 140.774 A 0.758 0.758 0 0 0 317.423 141.012 Q 317.366 141.135 317.34 141.292 Z" id="Right_labelLayer" stroke="#777777" fill="#777777" style="stroke:#777777;fill:#777777" vector-effect="non-scaling-stroke"/><path d="M 197 48.499 L 200 48.499 L 200 0 L 101.501 0 L 101.501 48.499 L 98.499 48.499 L 98.499 0 L 0 0 L 0 48.499 L 3 48.499 L 3 96.998 L 197 96.998 L 197 48.499 Z" id="rowDivider-0_outsideCutPath" stroke="#FF0000" stroke-width="0.1" style="stroke:#FF0000;stroke-width:0.1" vector-effect="non-scaling-stroke"/><path d="M 73.084 55.773 L 71.218 55.773 L 69.314 49.683 A 10.12 10.12 0 0 1 69.22 49.37 Q 69.026 48.691 68.642 47.147 A 31.551 31.551 0 0 0 68.641 47.144 L 68.566 47.144 Q 68.253 48.51 68.005 49.362 A 15.811 15.811 0 0 1 67.902 49.702 L 65.942 55.773 L 64.123 55.773 L 61.291 45.392 L 62.939 45.392 Q 63.943 49.304 64.469 51.35 A 68.707 68.707 0 0 1 64.677 52.181 Q 64.952 53.31 65.041 53.886 A 4.835 4.835 0 0 1 65.07 54.106 L 65.146 54.106 A 12.132 12.132 0 0 1 65.224 53.738 Q 65.323 53.298 65.482 52.709 A 40.407 40.407 0 0 1 65.594 52.303 Q 65.725 51.839 65.834 51.504 A 11.605 11.605 0 0 1 65.885 51.35 L 67.789 45.392 L 69.494 45.392 L 71.35 51.35 A 29.885 29.885 0 0 1 71.675 52.408 Q 71.81 52.884 71.909 53.304 A 12.948 12.948 0 0 1 72.07 54.087 L 72.146 54.087 Q 72.184 53.746 72.35 53.036 A 20.65 20.65 0 0 1 72.417 52.761 Q 72.721 51.542 74.126 46.152 A 5005.168 5005.168 0 0 1 74.325 45.392 L 75.954 45.392 L 73.084 55.773 Z M 118.779 55.773 L 118.57 54.381 L 118.485 54.381 A 3.541 3.541 0 0 1 115.886 55.923 A 5.305 5.305 0 0 1 115.227 55.963 A 4.765 4.765 0 0 1 113.853 55.775 A 3.597 3.597 0 0 1 112.058 54.57 Q 111.144 53.446 110.968 51.555 A 10.203 10.203 0 0 1 110.926 50.611 A 9.33 9.33 0 0 1 111.047 49.058 Q 111.297 47.58 112.063 46.623 A 3.704 3.704 0 0 1 114.704 45.227 A 5.313 5.313 0 0 1 115.227 45.202 A 4.631 4.631 0 0 1 116.618 45.4 A 3.575 3.575 0 0 1 118.466 46.737 L 118.589 46.737 L 118.523 45.988 L 118.485 45.259 L 118.485 41.034 L 120.058 41.034 L 120.058 55.773 L 118.779 55.773 Z M 100.99 55.773 L 99.152 55.773 L 95.211 45.392 L 96.898 45.392 L 99.133 51.549 A 92.951 92.951 0 0 1 99.435 52.421 Q 99.783 53.447 99.935 53.995 A 5.724 5.724 0 0 1 100.023 54.352 L 100.099 54.353 A 4.525 4.525 0 0 1 100.166 54.081 Q 100.288 53.64 100.57 52.815 A 67.278 67.278 0 0 1 100.758 52.273 A 170.876 170.876 0 0 1 101.066 51.405 Q 101.578 49.974 102.583 47.209 A 2719.395 2719.395 0 0 1 103.244 45.392 L 104.93 45.392 L 100.99 55.773 Z M 131.595 49.872 L 131.595 50.867 L 124.443 50.867 A 6.311 6.311 0 0 0 124.554 51.923 Q 124.764 52.991 125.367 53.642 A 2.857 2.857 0 0 0 126.867 54.487 A 4.329 4.329 0 0 0 127.834 54.589 A 8.305 8.305 0 0 0 130.945 53.973 A 9.517 9.517 0 0 0 131.15 53.888 L 131.15 55.29 A 9.44 9.44 0 0 1 130.289 55.615 A 7.219 7.219 0 0 1 129.573 55.807 Q 128.995 55.928 128.231 55.955 A 12.811 12.811 0 0 1 127.778 55.963 A 6.11 6.11 0 0 1 126.249 55.782 A 4.327 4.327 0 0 1 124.145 54.561 A 4.628 4.628 0 0 1 123.038 52.528 Q 122.846 51.807 122.818 50.952 A 8.982 8.982 0 0 1 122.814 50.668 A 8.257 8.257 0 0 1 122.967 49.03 Q 123.168 48.035 123.635 47.262 A 4.656 4.656 0 0 1 124.05 46.68 A 4.029 4.029 0 0 1 126.987 45.215 A 5.559 5.559 0 0 1 127.37 45.202 A 4.791 4.791 0 0 1 128.719 45.383 A 3.645 3.645 0 0 1 130.458 46.486 A 4.397 4.397 0 0 1 131.454 48.495 A 6.4 6.4 0 0 1 131.595 49.872 Z M 81.903 55.773 L 78.066 55.773 L 78.066 41.925 L 82.31 41.925 Q 85.009 41.925 86.702 43.174 A 5.532 5.532 0 0 1 87.33 43.715 Q 89.121 45.505 89.121 48.716 Q 89.121 52.145 87.259 53.959 A 6.006 6.006 0 0 1 84.74 55.399 Q 83.802 55.68 82.675 55.75 A 12.444 12.444 0 0 1 81.903 55.773 Z M 156.806 50.706 A 18.293 18.293 0 0 0 156.896 48.83 A 16.513 16.513 0 0 0 156.789 46.881 Q 156.674 45.924 156.439 45.137 A 6.318 6.318 0 0 0 155.726 43.535 Q 154.556 41.707 152.302 41.707 Q 149.99 41.707 148.863 43.459 Q 148.053 44.719 147.825 46.942 A 18.582 18.582 0 0 0 147.736 48.83 A 20.787 20.787 0 0 0 147.736 48.968 Q 147.751 51.096 148.203 52.589 A 6.195 6.195 0 0 0 148.901 54.149 Q 149.629 55.283 150.776 55.708 A 4.36 4.36 0 0 0 152.302 55.963 A 5.366 5.366 0 0 0 153.1 55.906 A 3.666 3.666 0 0 0 155.764 54.192 A 4.82 4.82 0 0 0 155.933 53.904 Q 156.602 52.678 156.806 50.706 Z M 49.081 45.316 L 48.863 46.775 A 6.93 6.93 0 0 0 48.365 46.683 Q 48.116 46.647 47.895 46.636 A 3.688 3.688 0 0 0 47.726 46.633 A 2.725 2.725 0 0 0 45.713 47.502 A 3.728 3.728 0 0 0 45.571 47.656 A 3.591 3.591 0 0 0 44.705 49.672 A 4.773 4.773 0 0 0 44.676 50.204 L 44.676 55.773 L 43.104 55.773 L 43.104 45.392 L 44.401 45.392 L 44.581 47.315 L 44.657 47.315 A 5.31 5.31 0 0 1 45.251 46.466 A 4.056 4.056 0 0 1 46.05 45.752 Q 46.864 45.202 47.84 45.202 A 7.219 7.219 0 0 1 48.486 45.23 A 5.269 5.269 0 0 1 49.081 45.316 Z M 140.253 45.316 L 140.035 46.775 A 6.93 6.93 0 0 0 139.537 46.683 Q 139.288 46.647 139.067 46.636 A 3.688 3.688 0 0 0 138.898 46.633 A 2.725 2.725 0 0 0 136.885 47.502 A 3.728 3.728 0 0 0 136.743 47.656 A 3.591 3.591 0 0 0 135.877 49.672 A 4.773 4.773 0 0 0 135.848 50.204 L 135.848 55.773 L 134.276 55.773 L 134.276 45.392 L 135.573 45.392 L 135.753 47.315 L 135.829 47.315 A 5.31 5.31 0 0 1 136.423 46.466 A 4.056 4.056 0 0 1 137.222 45.752 Q 138.036 45.202 139.012 45.202 A 7.219 7.219 0 0 1 139.658 45.23 A 5.269 5.269 0 0 1 140.253 45.316 Z M 82.016 43.317 L 79.677 43.317 L 79.677 54.381 L 81.637 54.381 A 9.345 9.345 0 0 0 83.259 54.249 Q 84.959 53.949 85.966 52.965 A 4.485 4.485 0 0 0 87.097 51.077 Q 87.316 50.387 87.385 49.557 A 9.55 9.55 0 0 0 87.416 48.773 A 8.6 8.6 0 0 0 87.285 47.219 Q 87.128 46.367 86.783 45.699 A 4.081 4.081 0 0 0 86.056 44.691 A 4.289 4.289 0 0 0 84.303 43.639 Q 83.624 43.418 82.798 43.349 A 9.36 9.36 0 0 0 82.016 43.317 Z M 58.705 54.537 A 4.386 4.386 0 0 0 59.227 53.82 Q 59.984 52.526 59.984 50.573 Q 59.984 49.564 59.77 48.725 A 4.896 4.896 0 0 0 58.7 46.651 A 4.116 4.116 0 0 0 56.789 45.419 A 5.284 5.284 0 0 0 55.238 45.202 A 6.107 6.107 0 0 0 54.141 45.296 A 4.159 4.159 0 0 0 51.714 46.618 Q 50.871 47.559 50.588 48.994 A 8.164 8.164 0 0 0 50.445 50.573 A 7.866 7.866 0 0 0 50.544 51.847 A 5.817 5.817 0 0 0 51.032 53.434 A 5.169 5.169 0 0 0 51.147 53.658 A 4.257 4.257 0 0 0 52.699 55.309 A 4.378 4.378 0 0 0 53.704 55.756 A 5.049 5.049 0 0 0 55.172 55.963 A 6.106 6.106 0 0 0 56.238 55.874 A 4.192 4.192 0 0 0 58.705 54.537 Z M 149.814 52.707 A 4.205 4.205 0 0 0 150.038 53.23 A 2.711 2.711 0 0 0 150.649 54.036 Q 151.3 54.608 152.302 54.608 A 2.748 2.748 0 0 0 153.295 54.438 Q 154.121 54.12 154.58 53.211 Q 155.177 52.029 155.269 49.711 A 22.263 22.263 0 0 0 155.285 48.83 A 20.105 20.105 0 0 0 155.233 47.318 Q 155.093 45.467 154.58 44.459 A 2.688 2.688 0 0 0 153.961 43.64 Q 153.421 43.169 152.637 43.088 A 3.263 3.263 0 0 0 152.302 43.071 A 2.745 2.745 0 0 0 151.314 43.24 Q 150.498 43.552 150.038 44.44 A 4.771 4.771 0 0 0 149.679 45.398 Q 149.41 46.399 149.347 47.878 A 22.383 22.383 0 0 0 149.327 48.83 Q 149.327 51.332 149.814 52.707 Z M 93.544 45.392 L 93.544 55.773 L 91.972 55.773 L 91.972 45.392 L 93.544 45.392 Z M 108.17 45.392 L 108.17 55.773 L 106.597 55.773 L 106.597 45.392 L 108.17 45.392 Z M 52.074 50.573 Q 52.074 52.562 52.87 53.604 A 2.577 2.577 0 0 0 54.548 54.593 A 3.905 3.905 0 0 0 55.209 54.646 A 3.652 3.652 0 0 0 56.173 54.526 A 2.542 2.542 0 0 0 57.554 53.609 A 3.376 3.376 0 0 0 58.079 52.585 Q 58.234 52.112 58.302 51.535 A 8.283 8.283 0 0 0 58.354 50.573 A 7.846 7.846 0 0 0 58.28 49.455 Q 58.198 48.886 58.025 48.425 A 3.238 3.238 0 0 0 57.554 47.566 Q 56.753 46.538 55.19 46.538 A 3.742 3.742 0 0 0 54.259 46.647 A 2.504 2.504 0 0 0 52.86 47.551 Q 52.294 48.281 52.136 49.526 A 8.309 8.309 0 0 0 52.074 50.573 Z M 118.485 50.942 L 118.485 50.611 A 10.492 10.492 0 0 0 118.433 49.528 Q 118.32 48.435 117.956 47.774 A 2.357 2.357 0 0 0 117.751 47.461 A 2.297 2.297 0 0 0 116.59 46.68 Q 116.073 46.519 115.407 46.519 A 2.821 2.821 0 0 0 114.462 46.67 A 2.346 2.346 0 0 0 113.29 47.594 A 3.705 3.705 0 0 0 112.814 48.614 Q 112.555 49.466 112.555 50.63 Q 112.555 51.854 112.832 52.709 A 3.316 3.316 0 0 0 113.285 53.633 Q 114.014 54.646 115.426 54.646 Q 116.455 54.646 117.122 54.288 A 2.116 2.116 0 0 0 117.761 53.77 A 2.604 2.604 0 0 0 118.188 53.001 Q 118.456 52.273 118.482 51.187 A 9.966 9.966 0 0 0 118.485 50.942 Z M 124.481 49.588 L 129.909 49.588 Q 129.909 48.101 129.246 47.31 A 2.154 2.154 0 0 0 127.948 46.571 A 3.232 3.232 0 0 0 127.351 46.519 A 3.1 3.1 0 0 0 126.456 46.642 A 2.395 2.395 0 0 0 125.357 47.333 A 3.106 3.106 0 0 0 124.74 48.375 Q 124.543 48.913 124.481 49.588 Z M 145.974 51.293 L 141.323 51.293 L 141.323 49.853 L 145.974 49.853 L 145.974 51.293 Z M 91.861 42.29 A 1.742 1.742 0 0 0 91.839 42.578 A 1.856 1.856 0 0 0 91.847 42.756 Q 91.886 43.154 92.104 43.369 A 0.882 0.882 0 0 0 92.424 43.573 A 0.999 0.999 0 0 0 92.768 43.63 Q 93.146 43.63 93.421 43.369 Q 93.696 43.109 93.696 42.578 Q 93.696 42.319 93.63 42.126 A 0.794 0.794 0 0 0 93.421 41.792 Q 93.146 41.536 92.768 41.536 A 1.2 1.2 0 0 0 92.688 41.539 A 0.909 0.909 0 0 0 92.104 41.787 A 0.735 0.735 0 0 0 91.942 42.018 Q 91.887 42.138 91.861 42.29 Z M 106.487 42.29 A 1.742 1.742 0 0 0 106.465 42.578 A 1.856 1.856 0 0 0 106.473 42.756 Q 106.511 43.154 106.73 43.369 A 0.882 0.882 0 0 0 107.049 43.573 A 0.999 0.999 0 0 0 107.393 43.63 Q 107.772 43.63 108.047 43.369 Q 108.321 43.109 108.321 42.578 Q 108.321 42.319 108.256 42.126 A 0.794 0.794 0 0 0 108.047 41.792 Q 107.772 41.536 107.393 41.536 A 1.2 1.2 0 0 0 107.314 41.539 A 0.909 0.909 0 0 0 106.73 41.787 A 0.735 0.735 0 0 0 106.567 42.018 Q 106.512 42.138 106.487 42.29 Z" id="rowDivider-0_labelLayer" stroke="#777777" fill="#777777" style="stroke:#777777;fill:#777777" vector-effect="non-scaling-stroke"/><path d="M 449.999 48.499 L 453.002 48.499 L 453.002 0 L 203 0 L 203 48.499 L 206.002 48.499 L 206.002 96.998 L 326.499 96.998 L 326.499 48.499 L 329.502 48.499 L 329.502 96.998 L 449.999 96.998 L 449.999 48.499 Z" id="colDivider-0_outsideCutPath" stroke="#FF0000" stroke-width="0.1" style="stroke:#FF0000;stroke-width:0.1" vector-effect="non-scaling-stroke"/><path d="M 342.636 55.773 L 342.427 54.381 L 342.342 54.381 A 3.541 3.541 0 0 1 339.743 55.923 A 5.305 5.305 0 0 1 339.083 55.963 A 4.765 4.765 0 0 1 337.71 55.775 A 3.597 3.597 0 0 1 335.915 54.57 Q 335.001 53.446 334.825 51.555 A 10.203 10.203 0 0 1 334.783 50.611 A 9.33 9.33 0 0 1 334.904 49.058 Q 335.154 47.58 335.92 46.623 A 3.704 3.704 0 0 1 338.561 45.227 A 5.313 5.313 0 0 1 339.083 45.202 A 4.631 4.631 0 0 1 340.474 45.4 A 3.575 3.575 0 0 1 342.323 46.737 L 342.446 46.737 L 342.38 45.988 L 342.342 45.259 L 342.342 41.034 L 343.914 41.034 L 343.914 55.773 L 342.636 55.773 Z M 324.846 55.773 L 323.009 55.773 L 319.068 45.392 L 320.754 45.392 L 322.99 51.549 A 92.951 92.951 0 0 1 323.291 52.421 Q 323.64 53.447 323.791 53.995 A 5.724 5.724 0 0 1 323.88 54.352 L 323.956 54.353 A 4.525 4.525 0 0 1 324.023 54.081 Q 324.144 53.64 324.426 52.815 A 67.278 67.278 0 0 1 324.614 52.273 A 170.876 170.876 0 0 1 324.923 51.405 Q 325.434 49.974 326.439 47.209 A 2719.395 2719.395 0 0 1 327.101 45.392 L 328.787 45.392 L 324.846 55.773 Z M 355.452 49.872 L 355.452 50.867 L 348.3 50.867 A 6.311 6.311 0 0 0 348.411 51.923 Q 348.621 52.991 349.224 53.642 A 2.857 2.857 0 0 0 350.724 54.487 A 4.329 4.329 0 0 0 351.691 54.589 A 8.305 8.305 0 0 0 354.802 53.973 A 9.517 9.517 0 0 0 355.006 53.888 L 355.006 55.29 A 9.44 9.44 0 0 1 354.146 55.615 A 7.219 7.219 0 0 1 353.429 55.807 Q 352.851 55.928 352.087 55.955 A 12.811 12.811 0 0 1 351.634 55.963 A 6.11 6.11 0 0 1 350.105 55.782 A 4.327 4.327 0 0 1 348.002 54.561 A 4.628 4.628 0 0 1 346.895 52.528 Q 346.702 51.807 346.675 50.952 A 8.982 8.982 0 0 1 346.671 50.668 A 8.257 8.257 0 0 1 346.824 49.03 Q 347.025 48.035 347.492 47.262 A 4.656 4.656 0 0 1 347.907 46.68 A 4.029 4.029 0 0 1 350.844 45.215 A 5.559 5.559 0 0 1 351.227 45.202 A 4.791 4.791 0 0 1 352.576 45.383 A 3.645 3.645 0 0 1 354.315 46.486 A 4.397 4.397 0 0 1 355.311 48.495 A 6.4 6.4 0 0 1 355.452 49.872 Z M 305.759 55.773 L 301.923 55.773 L 301.923 41.925 L 306.167 41.925 Q 308.865 41.925 310.559 43.174 A 5.532 5.532 0 0 1 311.187 43.715 Q 312.977 45.505 312.977 48.716 Q 312.977 52.145 311.116 53.959 A 6.006 6.006 0 0 1 308.597 55.399 Q 307.659 55.68 306.532 55.75 A 12.444 12.444 0 0 1 305.759 55.773 Z M 282.751 45.742 L 282.268 47.078 A 6.995 6.995 0 0 0 281.509 46.825 A 8.355 8.355 0 0 0 281.131 46.732 A 6.495 6.495 0 0 0 280.637 46.641 Q 280.396 46.606 280.182 46.597 A 3.485 3.485 0 0 0 280.042 46.595 A 3.488 3.488 0 0 0 278.625 46.861 Q 277.141 47.515 276.918 49.778 A 8.689 8.689 0 0 0 276.878 50.63 A 7.615 7.615 0 0 0 276.953 51.739 Q 277.036 52.301 277.21 52.758 A 3.262 3.262 0 0 0 277.65 53.566 A 2.497 2.497 0 0 0 279.268 54.533 A 3.804 3.804 0 0 0 279.938 54.589 A 6.582 6.582 0 0 0 281.753 54.325 A 8.127 8.127 0 0 0 282.599 54.03 L 282.599 55.423 A 4.473 4.473 0 0 1 281.505 55.81 Q 281 55.922 280.412 55.952 A 8.623 8.623 0 0 1 279.975 55.963 A 5.877 5.877 0 0 1 278.546 55.799 A 3.985 3.985 0 0 1 276.485 54.575 Q 275.417 53.376 275.272 51.319 A 9.508 9.508 0 0 1 275.249 50.649 A 8.676 8.676 0 0 1 275.383 49.071 Q 275.546 48.191 275.907 47.497 A 4.335 4.335 0 0 1 276.504 46.623 A 4.071 4.071 0 0 1 278.733 45.341 A 6.172 6.172 0 0 1 280.08 45.202 A 7.096 7.096 0 0 1 281.576 45.363 Q 282.325 45.524 282.751 45.742 Z M 380.663 50.706 A 18.293 18.293 0 0 0 380.753 48.83 A 16.513 16.513 0 0 0 380.645 46.881 Q 380.531 45.924 380.296 45.137 A 6.318 6.318 0 0 0 379.583 43.535 Q 378.413 41.707 376.158 41.707 Q 373.847 41.707 372.72 43.459 Q 371.91 44.719 371.682 46.942 A 18.582 18.582 0 0 0 371.593 48.83 A 20.787 20.787 0 0 0 371.593 48.968 Q 371.607 51.096 372.059 52.589 A 6.195 6.195 0 0 0 372.758 54.149 Q 373.486 55.283 374.632 55.708 A 4.36 4.36 0 0 0 376.158 55.963 A 5.366 5.366 0 0 0 376.957 55.906 A 3.666 3.666 0 0 0 379.621 54.192 A 4.82 4.82 0 0 0 379.79 53.904 Q 380.459 52.678 380.663 50.706 Z M 364.109 45.316 L 363.892 46.775 A 6.93 6.93 0 0 0 363.393 46.683 Q 363.145 46.647 362.924 46.636 A 3.688 3.688 0 0 0 362.755 46.633 A 2.725 2.725 0 0 0 360.742 47.502 A 3.728 3.728 0 0 0 360.6 47.656 A 3.591 3.591 0 0 0 359.734 49.672 A 4.773 4.773 0 0 0 359.705 50.204 L 359.705 55.773 L 358.132 55.773 L 358.132 45.392 L 359.43 45.392 L 359.61 47.315 L 359.686 47.315 A 5.31 5.31 0 0 1 360.28 46.466 A 4.056 4.056 0 0 1 361.078 45.752 Q 361.893 45.202 362.869 45.202 A 7.219 7.219 0 0 1 363.515 45.23 A 5.269 5.269 0 0 1 364.109 45.316 Z M 305.873 43.317 L 303.533 43.317 L 303.533 54.381 L 305.494 54.381 A 9.345 9.345 0 0 0 307.116 54.249 Q 308.815 53.949 309.823 52.965 A 4.485 4.485 0 0 0 310.954 51.077 Q 311.173 50.387 311.241 49.557 A 9.55 9.55 0 0 0 311.272 48.773 A 8.6 8.6 0 0 0 311.141 47.219 Q 310.984 46.367 310.64 45.699 A 4.081 4.081 0 0 0 309.913 44.691 A 4.289 4.289 0 0 0 308.16 43.639 Q 307.48 43.418 306.654 43.349 A 9.36 9.36 0 0 0 305.873 43.317 Z M 298.352 41.034 L 298.352 55.773 L 296.78 55.773 L 296.78 41.034 L 298.352 41.034 Z M 292.744 54.537 A 4.386 4.386 0 0 0 293.267 53.82 Q 294.023 52.526 294.023 50.573 Q 294.023 49.564 293.809 48.725 A 4.896 4.896 0 0 0 292.74 46.651 A 4.116 4.116 0 0 0 290.829 45.419 A 5.284 5.284 0 0 0 289.277 45.202 A 6.107 6.107 0 0 0 288.18 45.296 A 4.159 4.159 0 0 0 285.754 46.618 Q 284.911 47.559 284.628 48.994 A 8.164 8.164 0 0 0 284.484 50.573 A 7.866 7.866 0 0 0 284.583 51.847 A 5.817 5.817 0 0 0 285.072 53.434 A 5.169 5.169 0 0 0 285.186 53.658 A 4.257 4.257 0 0 0 286.739 55.309 A 4.378 4.378 0 0 0 287.744 55.756 A 5.049 5.049 0 0 0 289.211 55.963 A 6.106 6.106 0 0 0 290.277 55.874 A 4.192 4.192 0 0 0 292.744 54.537 Z M 373.671 52.707 A 4.205 4.205 0 0 0 373.894 53.23 A 2.711 2.711 0 0 0 374.506 54.036 Q 375.157 54.608 376.158 54.608 A 2.748 2.748 0 0 0 377.152 54.438 Q 377.978 54.12 378.437 53.211 Q 379.034 52.029 379.125 49.711 A 22.263 22.263 0 0 0 379.142 48.83 A 20.105 20.105 0 0 0 379.089 47.318 Q 378.949 45.467 378.437 44.459 A 2.688 2.688 0 0 0 377.817 43.64 Q 377.278 43.169 376.494 43.088 A 3.263 3.263 0 0 0 376.158 43.071 A 2.745 2.745 0 0 0 375.17 43.24 Q 374.355 43.552 373.894 44.44 A 4.771 4.771 0 0 0 373.535 45.398 Q 373.266 46.399 373.203 47.878 A 22.383 22.383 0 0 0 373.184 48.83 Q 373.184 51.332 373.671 52.707 Z M 317.401 45.392 L 317.401 55.773 L 315.829 55.773 L 315.829 45.392 L 317.401 45.392 Z M 332.026 45.392 L 332.026 55.773 L 330.454 55.773 L 330.454 45.392 L 332.026 45.392 Z M 286.114 50.573 Q 286.114 52.562 286.909 53.604 A 2.577 2.577 0 0 0 288.588 54.593 A 3.905 3.905 0 0 0 289.249 54.646 A 3.652 3.652 0 0 0 290.213 54.526 A 2.542 2.542 0 0 0 291.593 53.609 A 3.376 3.376 0 0 0 292.119 52.585 Q 292.274 52.112 292.341 51.535 A 8.283 8.283 0 0 0 292.394 50.573 A 7.846 7.846 0 0 0 292.32 49.455 Q 292.237 48.886 292.064 48.425 A 3.238 3.238 0 0 0 291.593 47.566 Q 290.793 46.538 289.23 46.538 A 3.742 3.742 0 0 0 288.298 46.647 A 2.504 2.504 0 0 0 286.9 47.551 Q 286.334 48.281 286.175 49.526 A 8.309 8.309 0 0 0 286.114 50.573 Z M 342.342 50.942 L 342.342 50.611 A 10.492 10.492 0 0 0 342.29 49.528 Q 342.176 48.435 341.812 47.774 A 2.357 2.357 0 0 0 341.608 47.461 A 2.297 2.297 0 0 0 340.447 46.68 Q 339.93 46.519 339.263 46.519 A 2.821 2.821 0 0 0 338.318 46.67 A 2.346 2.346 0 0 0 337.146 47.594 A 3.705 3.705 0 0 0 336.671 48.614 Q 336.412 49.466 336.412 50.63 Q 336.412 51.854 336.688 52.709 A 3.316 3.316 0 0 0 337.142 53.633 Q 337.871 54.646 339.282 54.646 Q 340.311 54.646 340.979 54.288 A 2.116 2.116 0 0 0 341.617 53.77 A 2.604 2.604 0 0 0 342.044 53.001 Q 342.312 52.273 342.339 51.187 A 9.966 9.966 0 0 0 342.342 50.942 Z M 348.338 49.588 L 353.766 49.588 Q 353.766 48.101 353.103 47.31 A 2.154 2.154 0 0 0 351.805 46.571 A 3.232 3.232 0 0 0 351.208 46.519 A 3.1 3.1 0 0 0 350.313 46.642 A 2.395 2.395 0 0 0 349.214 47.333 A 3.106 3.106 0 0 0 348.596 48.375 Q 348.4 48.913 348.338 49.588 Z M 369.831 51.293 L 365.18 51.293 L 365.18 49.853 L 369.831 49.853 L 369.831 51.293 Z M 315.718 42.29 A 1.742 1.742 0 0 0 315.696 42.578 A 1.856 1.856 0 0 0 315.704 42.756 Q 315.742 43.154 315.961 43.369 A 0.882 0.882 0 0 0 316.28 43.573 A 0.999 0.999 0 0 0 316.624 43.63 Q 317.003 43.63 317.278 43.369 Q 317.553 43.109 317.553 42.578 Q 317.553 42.319 317.487 42.126 A 0.794 0.794 0 0 0 317.278 41.792 Q 317.003 41.536 316.624 41.536 A 1.2 1.2 0 0 0 316.545 41.539 A 0.909 0.909 0 0 0 315.961 41.787 A 0.735 0.735 0 0 0 315.799 42.018 Q 315.744 42.138 315.718 42.29 Z M 330.344 42.29 A 1.742 1.742 0 0 0 330.321 42.578 A 1.856 1.856 0 0 0 330.33 42.756 Q 330.368 43.154 330.587 43.369 A 0.882 0.882 0 0 0 330.906 43.573 A 0.999 0.999 0 0 0 331.25 43.63 Q 331.629 43.63 331.903 43.369 Q 332.178 43.109 332.178 42.578 Q 332.178 42.319 332.112 42.126 A 0.794 0.794 0 0 0 331.903 41.792 Q 331.629 41.536 331.25 41.536 A 1.2 1.2 0 0 0 331.17 41.539 A 0.909 0.909 0 0 0 330.587 41.787 A 0.735 0.735 0 0 0 330.424 42.018 Q 330.369 42.138 330.344 42.29 Z" id="colDivider-0_labelLayer" stroke="#777777" fill="#777777" style="stroke:#777777;fill:#777777" vector-effect="non-scaling-stroke"/></g></svg>