<svg width="656mm" height="503mm" viewBox="0 0 656 503" xmlns="http://www.w3.org/2000/svg" version="1.1" preserveAspectRatio="xMidYMid meet"><g id="svgGroup" stroke-linecap="round" fill-rule="evenodd" font-size="9pt" stroke="#000" stroke-width="0.25mm" fill="none" style="stroke:#000;stroke-width:0.25mm;fill:none"><path d="M 0 403 L 0 412.5 L 3 412.5 L 3 421.5 L 0 421.5 L 0 430.5 L 3 430.5 L 3 439.5 L 0 439.5 L 0 448.5 L 3 448.5 L 3 457.5 L 0 457.5 L 0 466.5 L 3 466.5 L 3 475.5 L 0 475.5 L 0 484.5 L 3 484.5 L 3 493.5 L 0 493.5 L 0 503 L 14.5 503 L 14.5 500 L 23.5 500 L 23.5 503 L 32.5 503 L 32.5 500 L 41.5 500 L 41.5 503 L 50.5 503 L 50.5 500 L 59.5 500 L 59.5 503 L 68.5 503 L 68.5 500 L 77.5 500 L 77.5 503 L 86.5 503 L 86.5 500 L 95.5 500 L 95.5 503 L 104.5 503 L 104.5 500 L 113.5 500 L 113.5 503 L 122.5 503 L 122.5 500 L 131.5 500 L 131.5 503 L 140.5 503 L 140.5 500 L 149.5 500 L 149.5 503 L 158.5 503 L 158.5 500 L 167.5 500 L 167.5 503 L 176.5 503 L 176.5 500 L 185.5 500 L 185.5 503 L 194.5 503 L 200 503 L 200 493.5 L 197 493.5 L 197 484.5 L 200 484.5 L 200 475.5 L 197 475.5 L 197 466.5 L 200 466.5 L 200 457.5 L 197 457.5 L 197 448.5 L 200 448.5 L 200 439.5 L 197 439.5 L 197 430.5 L 200 430.5 L 200 421.5 L 197 421.5 L 197 412.5 L 200 412.5 L 200 403 L 185.5 403 L 185.5 406 L 176.5 406 L 176.5 403 L 167.5 403 L 167.5 406 L 158.5 406 L 158.5 403 L 149.5 403 L 149.5 406 L 140.5 406 L 140.5 403 L 131.5 403 L 131.5 406 L 122.5 406 L 122.5 403 L 113.5 403 L 113.5 406 L 104.5 406 L 104.5 403 L 95.5 403 L 95.5 406 L 86.5 406 L 86.5 403 L 77.5 403 L 77.5 406 L 68.5 406 L 68.5 403 L 59.5 403 L 59.5 406 L 50.5 406 L 50.5 403 L 41.5 403 L 41.5 406 L 32.5 406 L 32.5 403 L 23.5 403 L 23.5 406 L 14.5 406 L 14.5 403 L 5.5 403 L 0 403 Z" id="front_outsideCutPath" stroke="#FF0000" stroke-width="0.1" style="stroke:#FF0000;stroke-width:0.1" vector-effect="non-scaling-stroke"/><path d="M 114.575 460.553 L 112.954 460.553 L 112.954 453.63 Q 112.954 452.796 112.712 452.231 A 1.928 1.928 0 0 0 112.358 451.677 A 1.828 1.828 0 0 0 111.609 451.198 Q 111.314 451.094 110.952 451.055 A 4.298 4.298 0 0 0 110.493 451.032 Q 109.387 451.032 108.67 451.426 A 2.286 2.286 0 0 0 108.032 451.94 A 2.65 2.65 0 0 0 107.572 452.746 Q 107.294 453.484 107.257 454.586 A 10.385 10.385 0 0 0 107.251 454.938 L 107.251 460.553 L 105.63 460.553 L 105.63 449.85 L 106.948 449.85 L 107.212 451.315 L 107.29 451.315 A 3.283 3.283 0 0 1 108.576 450.145 A 3.947 3.947 0 0 1 108.687 450.09 A 4.39 4.39 0 0 1 110.249 449.673 A 5.308 5.308 0 0 1 110.688 449.655 Q 111.971 449.655 112.832 450.065 A 2.913 2.913 0 0 1 113.599 450.588 Q 114.575 451.52 114.575 453.571 L 114.575 460.553 Z M 83.433 449.85 L 83.433 451.11 L 80.708 451.11 L 80.708 460.553 L 79.087 460.553 L 79.087 451.11 L 77.173 451.11 L 77.173 450.378 L 79.087 449.792 L 79.087 449.196 Q 79.087 445.79 81.656 445.325 A 4.927 4.927 0 0 1 82.534 445.251 Q 83.195 445.251 84.032 445.457 A 10.494 10.494 0 0 1 84.526 445.593 L 84.106 446.891 A 7.872 7.872 0 0 0 83.494 446.719 Q 82.941 446.589 82.505 446.589 A 2.186 2.186 0 0 0 81.978 446.648 A 1.404 1.404 0 0 0 81.147 447.199 A 1.876 1.876 0 0 0 80.9 447.699 Q 80.735 448.187 80.712 448.913 A 7.654 7.654 0 0 0 80.708 449.157 L 80.708 449.85 L 83.433 449.85 Z M 122.827 459.216 L 122.827 460.456 A 1.595 1.595 0 0 1 122.638 460.531 Q 122.436 460.598 122.148 460.649 A 6.063 6.063 0 0 1 122.051 460.666 Q 121.572 460.743 121.183 460.748 A 4.156 4.156 0 0 1 121.128 460.749 A 4.234 4.234 0 0 1 119.88 460.581 Q 118.509 460.158 118.15 458.668 A 5.096 5.096 0 0 1 118.022 457.477 L 118.022 451.11 L 116.489 451.11 L 116.489 450.329 L 118.022 449.655 L 118.706 447.37 L 119.644 447.37 L 119.644 449.85 L 122.749 449.85 L 122.749 451.11 L 119.644 451.11 L 119.644 457.409 A 3.264 3.264 0 0 0 119.691 457.982 Q 119.747 458.297 119.87 458.546 A 1.572 1.572 0 0 0 120.103 458.893 A 1.506 1.506 0 0 0 121.028 459.386 A 2.167 2.167 0 0 0 121.362 459.411 A 5.324 5.324 0 0 0 122.142 459.355 A 4.914 4.914 0 0 0 122.192 459.347 A 8.77 8.77 0 0 0 122.426 459.307 Q 122.65 459.266 122.805 459.222 A 2.43 2.43 0 0 0 122.827 459.216 Z M 91.548 449.772 L 91.323 451.276 A 7.145 7.145 0 0 0 90.809 451.181 Q 90.553 451.144 90.325 451.134 A 3.802 3.802 0 0 0 90.151 451.13 A 2.809 2.809 0 0 0 88.076 452.026 A 3.843 3.843 0 0 0 87.93 452.184 A 3.702 3.702 0 0 0 87.037 454.263 A 4.921 4.921 0 0 0 87.007 454.811 L 87.007 460.553 L 85.386 460.553 L 85.386 449.85 L 86.724 449.85 L 86.909 451.833 L 86.987 451.833 A 5.474 5.474 0 0 1 87.599 450.958 A 4.182 4.182 0 0 1 88.423 450.221 Q 89.263 449.655 90.269 449.655 A 7.442 7.442 0 0 1 90.935 449.683 A 5.432 5.432 0 0 1 91.548 449.772 Z M 102.639 456.821 A 8.374 8.374 0 0 0 102.788 455.192 A 9.514 9.514 0 0 0 102.785 454.935 Q 102.721 452.567 101.465 451.149 A 4.244 4.244 0 0 0 99.495 449.879 A 5.447 5.447 0 0 0 97.896 449.655 A 6.296 6.296 0 0 0 96.765 449.752 A 4.288 4.288 0 0 0 94.263 451.115 Q 93.394 452.085 93.102 453.564 A 8.417 8.417 0 0 0 92.954 455.192 A 8.11 8.11 0 0 0 93.056 456.506 A 5.997 5.997 0 0 0 93.56 458.141 A 5.328 5.328 0 0 0 93.678 458.372 A 4.389 4.389 0 0 0 95.278 460.075 A 4.514 4.514 0 0 0 96.314 460.536 A 5.206 5.206 0 0 0 97.827 460.749 A 6.295 6.295 0 0 0 98.926 460.657 A 4.322 4.322 0 0 0 101.47 459.279 Q 102.345 458.303 102.639 456.821 Z M 94.634 455.192 Q 94.634 457.243 95.454 458.317 A 2.657 2.657 0 0 0 97.185 459.336 A 4.026 4.026 0 0 0 97.866 459.391 A 3.765 3.765 0 0 0 98.86 459.268 A 2.62 2.62 0 0 0 100.283 458.322 Q 101.108 457.253 101.108 455.192 Q 101.108 453.883 100.769 452.977 A 3.338 3.338 0 0 0 100.283 452.092 A 2.667 2.667 0 0 0 98.625 451.102 A 4.089 4.089 0 0 0 97.847 451.032 A 3.858 3.858 0 0 0 96.886 451.145 A 2.582 2.582 0 0 0 95.444 452.077 Q 94.861 452.829 94.697 454.113 A 8.566 8.566 0 0 0 94.634 455.192 Z" id="front_labelLayer" stroke="#777777" fill="#777777" style="stroke:#777777;fill:#777777" vector-effect="non-scaling-stroke"/><path d="M 206 403 L 206 412.5 L 203 412.5 L 203 421.5 L 206 421.5 L 206 430.5 L 203 430.5 L 203 439.5 L 206 439.5 L 206 448.5 L 203 448.5 L 203 457.5 L 206 457.5 L 206 466.5 L 203 466.5 L 203 475.5 L 206 475.5 L 206 484.5 L 203 484.5 L 203 493.5 L 206 493.5 L 206 503 L 215.5 503 L 215.5 500 L 224.5 500 L 224.5 503 L 233.5 503 L 233.5 500 L 242.5 500 L 242.5 503 L 251.5 503 L 251.5 500 L 260.5 500 L 260.5 503 L 269.5 503 L 269.5 500 L 278.5 500 L 278.5 503 L 287.5 503 L 287.5 500 L 296.5 500 L 296.5 503 L 305.5 503 L 305.5 500 L 314.5 500 L 314.5 503 L 323.5 503 L 323.5 500 L 332.5 500 L 332.5 503 L 341.5 503 L 341.5 500 L 350.5 500 L 350.5 503 L 359.5 503 L 359.5 500 L 368.5 500 L 368.5 503 L 377.5 503 L 377.5 500 L 386.5 500 L 386.5 503 L 395.5 503 L 395.5 500 L 404.5 500 L 404.5 503 L 413.5 503 L 413.5 500 L 422.5 500 L 422.5 503 L 431.5 503 L 431.5 500 L 440.5 500 L 440.5 503 L 450 503 L 450 493.5 L 453 493.5 L 453 484.5 L 450 484.5 L 450 475.5 L 453 475.5 L 453 466.5 L 450 466.5 L 450 457.5 L 453 457.5 L 453 448.5 L 450 448.5 L 450 439.5 L 453 439.5 L 453 430.5 L 450 430.5 L 450 421.5 L 453 421.5 L 453 412.5 L 450 412.5 L 450 403 L 440.5 403 L 440.5 406 L 431.5 406 L 431.5 403 L 422.5 403 L 422.5 406 L 413.5 406 L 413.5 403 L 404.5 403 L 404.5 406 L 395.5 406 L 395.5 403 L 386.5 403 L 386.5 406 L 377.5 406 L 377.5 403 L 368.5 403 L 368.5 406 L 359.5 406 L 359.5 403 L 350.5 403 L 350.5 406 L 341.5 406 L 341.5 403 L 332.5 403 L 332.5 406 L 323.5 406 L 323.5 403 L 314.5 403 L 314.5 406 L 305.5 406 L 305.5 403 L 296.5 403 L 296.5 406 L 287.5 406 L 287.5 403 L 278.5 403 L 278.5 406 L 269.5 406 L 269.5 403 L 260.5 403 L 260.5 406 L 251.5 406 L 251.5 403 L 242.5 403 L 242.5 406 L 233.5 406 L 233.5 403 L 224.5 403 L 224.5 406 L 215.5 406 L 215.5 403 L 206 403 Z" id="left_outsideCutPath" stroke="#FF0000" stroke-width="0.1" style="stroke:#FF0000;stroke-width:0.1" vector-effect="non-scaling-stroke"/><path d="M 335.114 449.85 L 335.114 451.11 L 332.39 451.11 L 332.39 460.553 L 330.769 460.553 L 330.769 451.11 L 328.854 451.11 L 328.854 450.378 L 330.769 449.792 L 330.769 449.196 Q 330.769 445.79 333.338 445.325 A 4.927 4.927 0 0 1 334.216 445.251 Q 334.876 445.251 335.714 445.457 A 10.494 10.494 0 0 1 336.208 445.593 L 335.788 446.891 A 7.872 7.872 0 0 0 335.176 446.719 Q 334.622 446.589 334.187 446.589 A 2.186 2.186 0 0 0 333.66 446.648 A 1.404 1.404 0 0 0 332.829 447.199 A 1.876 1.876 0 0 0 332.581 447.699 Q 332.417 448.187 332.393 448.913 A 7.654 7.654 0 0 0 332.39 449.157 L 332.39 449.85 L 335.114 449.85 Z M 327.526 454.47 L 327.526 455.495 L 320.153 455.495 A 6.506 6.506 0 0 0 320.267 456.584 Q 320.384 457.178 320.619 457.646 A 3.044 3.044 0 0 0 321.105 458.356 A 2.946 2.946 0 0 0 322.652 459.228 A 4.463 4.463 0 0 0 323.649 459.333 A 8.562 8.562 0 0 0 326.856 458.698 A 9.811 9.811 0 0 0 327.067 458.61 L 327.067 460.055 A 9.732 9.732 0 0 1 326.18 460.39 A 7.442 7.442 0 0 1 325.441 460.588 Q 324.845 460.713 324.058 460.741 A 13.207 13.207 0 0 1 323.591 460.749 A 6.299 6.299 0 0 1 322.014 460.562 A 4.461 4.461 0 0 1 319.846 459.303 Q 318.474 457.858 318.474 455.29 A 8.512 8.512 0 0 1 318.631 453.602 Q 318.839 452.576 319.32 451.778 A 4.8 4.8 0 0 1 319.748 451.178 A 4.154 4.154 0 0 1 322.776 449.668 A 5.731 5.731 0 0 1 323.171 449.655 A 4.939 4.939 0 0 1 324.562 449.841 A 3.758 3.758 0 0 1 326.354 450.978 A 4.533 4.533 0 0 1 327.382 453.05 A 6.598 6.598 0 0 1 327.526 454.47 Z M 341.989 459.216 L 341.989 460.456 A 1.595 1.595 0 0 1 341.8 460.531 Q 341.598 460.598 341.31 460.649 A 6.063 6.063 0 0 1 341.213 460.666 Q 340.734 460.743 340.345 460.748 A 4.156 4.156 0 0 1 340.29 460.749 A 4.234 4.234 0 0 1 339.042 460.581 Q 337.671 460.158 337.312 458.668 A 5.096 5.096 0 0 1 337.185 457.477 L 337.185 451.11 L 335.651 451.11 L 335.651 450.329 L 337.185 449.655 L 337.868 447.37 L 338.806 447.37 L 338.806 449.85 L 341.911 449.85 L 341.911 451.11 L 338.806 451.11 L 338.806 457.409 A 3.264 3.264 0 0 0 338.853 457.982 Q 338.909 458.297 339.032 458.546 A 1.572 1.572 0 0 0 339.265 458.893 A 1.506 1.506 0 0 0 340.19 459.386 A 2.167 2.167 0 0 0 340.524 459.411 A 5.324 5.324 0 0 0 341.304 459.355 A 4.914 4.914 0 0 0 341.354 459.347 A 8.77 8.77 0 0 0 341.589 459.307 Q 341.812 459.266 341.968 459.222 A 2.43 2.43 0 0 0 341.989 459.216 Z M 315.632 445.358 L 315.632 460.553 L 314.011 460.553 L 314.011 445.358 L 315.632 445.358 Z M 320.192 454.177 L 325.788 454.177 A 5.524 5.524 0 0 0 325.721 453.288 Q 325.574 452.389 325.104 451.828 A 2.221 2.221 0 0 0 323.767 451.067 A 3.332 3.332 0 0 0 323.151 451.012 A 3.196 3.196 0 0 0 322.228 451.139 A 2.469 2.469 0 0 0 321.096 451.852 Q 320.402 452.612 320.224 453.9 A 6.124 6.124 0 0 0 320.192 454.177 Z" id="left_labelLayer" stroke="#777777" fill="#777777" style="stroke:#777777;fill:#777777" vector-effect="non-scaling-stroke"/><path d="M 459 256 L 459 265.5 L 456 265.5 L 456 274.5 L 459 274.5 L 459 283.5 L 456 283.5 L 456 292.5 L 459 292.5 L 459 301.5 L 456 301.5 L 456 310.5 L 459 310.5 L 459 319.5 L 456 319.5 L 456 328.5 L 459 328.5 L 459 337.5 L 456 337.5 L 456 346.5 L 459 346.5 L 459 355.5 L 456 355.5 L 456 364.5 L 459 364.5 L 459 373.5 L 456 373.5 L 456 382.5 L 459 382.5 L 459 391.5 L 456 391.5 L 456 400.5 L 459 400.5 L 459 409.5 L 456 409.5 L 456 418.5 L 459 418.5 L 459 427.5 L 456 427.5 L 456 436.5 L 459 436.5 L 459 445.5 L 456 445.5 L 456 454.5 L 459 454.5 L 459 463.5 L 456 463.5 L 456 472.5 L 459 472.5 L 459 481.5 L 456 481.5 L 456 490.5 L 459 490.5 L 459 500 L 470.5 500 L 470.5 503 L 479.5 503 L 479.5 500 L 488.5 500 L 488.5 503 L 497.5 503 L 497.5 500 L 506.5 500 L 506.5 503 L 515.5 503 L 515.5 500 L 524.5 500 L 524.5 503 L 533.5 503 L 533.5 500 L 542.5 500 L 542.5 503 L 551.5 503 L 551.5 500 L 560.5 500 L 560.5 503 L 569.5 503 L 569.5 500 L 578.5 500 L 578.5 503 L 587.5 503 L 587.5 500 L 596.5 500 L 596.5 503 L 605.5 503 L 605.5 500 L 614.5 500 L 614.5 503 L 623.5 503 L 623.5 500 L 632.5 500 L 632.5 503 L 641.5 503 L 641.5 500 L 650.5 500 L 653 500 L 653 490.5 L 656 490.5 L 656 481.5 L 653 481.5 L 653 472.5 L 656 472.5 L 656 463.5 L 653 463.5 L 653 454.5 L 656 454.5 L 656 445.5 L 653 445.5 L 653 436.5 L 656 436.5 L 656 427.5 L 653 427.5 L 653 418.5 L 656 418.5 L 656 409.5 L 653 409.5 L 653 400.5 L 656 400.5 L 656 391.5 L 653 391.5 L 653 382.5 L 656 382.5 L 656 373.5 L 653 373.5 L 653 364.5 L 656 364.5 L 656 355.5 L 653 355.5 L 653 346.5 L 656 346.5 L 656 337.5 L 653 337.5 L 653 328.5 L 656 328.5 L 656 319.5 L 653 319.5 L 653 310.5 L 656 310.5 L 656 301.5 L 653 301.5 L 653 292.5 L 656 292.5 L 656 283.5 L 653 283.5 L 653 274.5 L 656 274.5 L 656 265.5 L 653 265.5 L 653 256 L 641.5 256 L 641.5 253 L 632.5 253 L 632.5 256 L 623.5 256 L 623.5 253 L 614.5 253 L 614.5 256 L 605.5 256 L 605.5 253 L 596.5 253 L 596.5 256 L 587.5 256 L 587.5 253 L 578.5 253 L 578.5 256 L 569.5 256 L 569.5 253 L 560.5 253 L 560.5 256 L 551.5 256 L 551.5 253 L 542.5 253 L 542.5 256 L 533.5 256 L 533.5 253 L 524.5 253 L 524.5 256 L 515.5 256 L 515.5 253 L 506.5 253 L 506.5 256 L 497.5 256 L 497.5 253 L 488.5 253 L 488.5 256 L 479.5 256 L 479.5 253 L 470.5 253 L 470.5 256 L 461.5 256 L 459 256 Z" id="top_outsideCutPath" stroke="#FF0000" stroke-width="0.1" style="stroke:#FF0000;stroke-width:0.1" vector-effect="non-scaling-stroke"/><path d="M 570.375 383.625 L 570.14 383.625 A 30.683 30.683 0 0 1 570.342 385.892 A 25.711 25.711 0 0 1 570.375 387.18 L 570.375 395.988 L 567.133 395.988 L 567.133 364.973 L 569.769 364.973 L 570.219 367.902 L 570.375 367.902 Q 571.625 366.145 573.285 365.363 A 8.119 8.119 0 0 1 575.612 364.683 A 10.509 10.509 0 0 1 577.094 364.582 A 9.938 9.938 0 0 1 579.901 364.957 A 7.346 7.346 0 0 1 583.666 367.492 Q 585.98 370.402 585.98 375.656 A 19.01 19.01 0 0 1 585.728 378.855 Q 585.21 381.885 583.627 383.85 A 7.675 7.675 0 0 1 578.172 386.718 A 10.996 10.996 0 0 1 577.094 386.77 Q 575.004 386.77 573.275 385.998 A 7.181 7.181 0 0 1 570.375 383.625 Z M 538.695 383.703 L 538.695 386.184 A 3.189 3.189 0 0 1 538.317 386.334 Q 537.847 386.489 537.142 386.604 Q 536.185 386.759 535.407 386.769 A 8.312 8.312 0 0 1 535.297 386.77 A 8.468 8.468 0 0 1 532.801 386.434 Q 530.058 385.587 529.34 382.607 A 10.191 10.191 0 0 1 529.086 380.227 L 529.086 367.492 L 526.019 367.492 L 526.019 365.93 L 529.086 364.582 L 530.453 360.012 L 532.328 360.012 L 532.328 364.973 L 538.539 364.973 L 538.539 367.492 L 532.328 367.492 L 532.328 380.09 A 6.529 6.529 0 0 0 532.422 381.236 Q 532.535 381.866 532.781 382.364 A 3.145 3.145 0 0 0 533.246 383.059 Q 534.164 384.094 535.765 384.094 A 10.648 10.648 0 0 0 537.325 383.982 A 9.812 9.812 0 0 0 537.426 383.967 Q 538.19 383.846 538.652 383.716 A 4.868 4.868 0 0 0 538.695 383.703 Z M 561.151 378.914 A 16.747 16.747 0 0 0 561.449 375.656 A 19.028 19.028 0 0 0 561.442 375.142 Q 561.394 373.359 561.008 371.846 A 10.096 10.096 0 0 0 558.803 367.57 Q 556.156 364.582 551.664 364.582 Q 547.015 364.582 544.398 367.502 Q 542.66 369.441 542.076 372.401 A 16.834 16.834 0 0 0 541.781 375.656 A 16.219 16.219 0 0 0 541.985 378.283 A 11.994 11.994 0 0 0 542.992 381.555 A 10.656 10.656 0 0 0 543.228 382.017 A 8.777 8.777 0 0 0 546.43 385.422 A 9.028 9.028 0 0 0 548.502 386.343 A 10.412 10.412 0 0 0 551.527 386.77 A 12.59 12.59 0 0 0 553.726 386.586 A 8.644 8.644 0 0 0 558.812 383.83 A 9.044 9.044 0 0 0 559.889 382.351 Q 560.768 380.848 561.151 378.914 Z M 545.14 375.656 A 16.418 16.418 0 0 0 545.297 378.002 Q 545.469 379.192 545.831 380.157 A 6.802 6.802 0 0 0 546.781 381.906 A 5.314 5.314 0 0 0 550.242 383.944 A 8.052 8.052 0 0 0 551.605 384.055 A 7.531 7.531 0 0 0 553.592 383.808 A 5.241 5.241 0 0 0 556.439 381.916 A 6.96 6.96 0 0 0 557.523 379.805 Q 557.842 378.83 557.981 377.639 A 17.078 17.078 0 0 0 558.09 375.656 A 16.177 16.177 0 0 0 557.936 373.351 Q 557.587 370.929 556.439 369.455 Q 554.789 367.336 551.566 367.336 A 7.716 7.716 0 0 0 549.645 367.561 A 5.164 5.164 0 0 0 546.762 369.426 Q 545.14 371.516 545.14 375.656 Z M 570.375 374.934 L 570.375 375.656 Q 570.375 379.488 571.46 381.468 A 4.89 4.89 0 0 0 571.879 382.111 A 4.704 4.704 0 0 0 574.265 383.722 Q 575.328 384.055 576.703 384.055 A 5.463 5.463 0 0 0 578.827 383.656 Q 580.052 383.145 580.926 381.978 A 6.461 6.461 0 0 0 581.049 381.809 A 7.839 7.839 0 0 0 582.123 379.518 Q 582.434 378.467 582.551 377.206 A 17.273 17.273 0 0 0 582.621 375.617 Q 582.621 372.99 581.944 371.165 A 6.874 6.874 0 0 0 581.049 369.475 A 5.043 5.043 0 0 0 577.36 367.374 A 6.976 6.976 0 0 0 576.625 367.336 A 9.342 9.342 0 0 0 574.88 367.488 Q 573.908 367.673 573.161 368.084 A 4.284 4.284 0 0 0 571.879 369.152 Q 570.507 370.853 570.386 374.436 A 20.635 20.635 0 0 0 570.375 374.934 Z" id="top_labelLayer" stroke="#777777" fill="#777777" style="stroke:#777777;fill:#777777" vector-effect="non-scaling-stroke"/><path d="M 0 300 L 0 309.5 L 3 309.5 L 3 318.5 L 0 318.5 L 0 327.5 L 3 327.5 L 3 336.5 L 0 336.5 L 0 345.5 L 3 345.5 L 3 354.5 L 0 354.5 L 0 363.5 L 3 363.5 L 3 372.5 L 0 372.5 L 0 381.5 L 3 381.5 L 3 390.5 L 0 390.5 L 0 400 L 14.5 400 L 14.5 397 L 23.5 397 L 23.5 400 L 32.5 400 L 32.5 397 L 41.5 397 L 41.5 400 L 50.5 400 L 50.5 397 L 59.5 397 L 59.5 400 L 68.5 400 L 68.5 397 L 77.5 397 L 77.5 400 L 86.5 400 L 86.5 397 L 95.5 397 L 95.5 400 L 104.5 400 L 104.5 397 L 113.5 397 L 113.5 400 L 122.5 400 L 122.5 397 L 131.5 397 L 131.5 400 L 140.5 400 L 140.5 397 L 149.5 397 L 149.5 400 L 158.5 400 L 158.5 397 L 167.5 397 L 167.5 400 L 176.5 400 L 176.5 397 L 185.5 397 L 185.5 400 L 194.5 400 L 200 400 L 200 390.5 L 197 390.5 L 197 381.5 L 200 381.5 L 200 372.5 L 197 372.5 L 197 363.5 L 200 363.5 L 200 354.5 L 197 354.5 L 197 345.5 L 200 345.5 L 200 336.5 L 197 336.5 L 197 327.5 L 200 327.5 L 200 318.5 L 197 318.5 L 197 309.5 L 200 309.5 L 200 300 L 185.5 300 L 185.5 303 L 176.5 303 L 176.5 300 L 167.5 300 L 167.5 303 L 158.5 303 L 158.5 300 L 149.5 300 L 149.5 303 L 140.5 303 L 140.5 300 L 131.5 300 L 131.5 303 L 122.5 303 L 122.5 300 L 113.5 300 L 113.5 303 L 104.5 303 L 104.5 300 L 95.5 300 L 95.5 303 L 86.5 303 L 86.5 300 L 77.5 300 L 77.5 303 L 68.5 303 L 68.5 300 L 59.5 300 L 59.5 303 L 50.5 303 L 50.5 300 L 41.5 300 L 41.5 303 L 32.5 303 L 32.5 300 L 23.5 300 L 23.5 303 L 14.5 303 L 14.5 300 L 5.5 300 L 0 300 Z" id="back_outsideCutPath" stroke="#FF0000" stroke-width="0.1" style="stroke:#FF0000;stroke-width:0.1" vector-effect="non-scaling-stroke"/><path d="M 113.691 352.021 L 113.77 352.021 Q 114.189 351.426 115.049 350.459 L 118.506 346.797 L 120.43 346.797 L 116.094 351.357 L 120.732 357.5 L 118.77 357.5 L 114.99 352.441 L 113.77 353.496 L 113.77 357.5 L 112.168 357.5 L 112.168 342.305 L 113.77 342.305 L 113.77 350.361 A 10.803 10.803 0 0 1 113.765 350.666 Q 113.75 351.179 113.691 352.021 Z M 80.889 356.123 L 80.771 356.123 L 80.43 357.5 L 79.268 357.5 L 79.268 342.305 L 80.889 342.305 L 80.889 345.996 Q 80.889 347.196 80.816 348.159 A 20.218 20.218 0 0 1 80.811 348.223 L 80.889 348.223 A 3.686 3.686 0 0 1 83.579 346.66 A 5.537 5.537 0 0 1 84.248 346.621 A 4.955 4.955 0 0 1 85.642 346.807 A 3.709 3.709 0 0 1 87.524 348.061 A 4.777 4.777 0 0 1 88.362 349.675 Q 88.568 350.339 88.645 351.135 A 10.405 10.405 0 0 1 88.691 352.139 Q 88.691 354.775 87.515 356.235 A 3.838 3.838 0 0 1 84.787 357.669 A 5.498 5.498 0 0 1 84.248 357.695 A 4.917 4.917 0 0 1 83.012 357.545 A 4.278 4.278 0 0 1 82.339 357.309 Q 81.475 356.924 80.889 356.123 Z M 99.307 357.5 L 98.105 357.5 L 97.783 355.976 L 97.705 355.976 A 6.72 6.72 0 0 1 97.161 356.585 Q 96.869 356.873 96.577 357.073 A 2.987 2.987 0 0 1 96.108 357.339 Q 95.313 357.695 94.121 357.695 A 4.975 4.975 0 0 1 93.109 357.598 Q 92.219 357.413 91.626 356.875 A 2.665 2.665 0 0 1 90.822 355.47 A 4.079 4.079 0 0 1 90.723 354.541 Q 90.723 351.403 95.579 351.156 A 15.834 15.834 0 0 1 95.908 351.142 L 97.725 351.084 L 97.725 350.42 A 4.656 4.656 0 0 0 97.679 349.747 Q 97.629 349.402 97.522 349.126 A 1.809 1.809 0 0 0 97.183 348.559 A 1.646 1.646 0 0 0 96.509 348.12 Q 96.239 348.022 95.904 347.983 A 4.005 4.005 0 0 0 95.449 347.959 Q 94.374 347.959 93.071 348.489 A 10.857 10.857 0 0 0 92.422 348.779 L 91.924 347.539 A 7.474 7.474 0 0 1 93.366 346.946 A 8.508 8.508 0 0 1 93.657 346.865 A 7.507 7.507 0 0 1 95.547 346.621 A 6.847 6.847 0 0 1 96.59 346.695 Q 97.733 346.872 98.384 347.471 Q 99.107 348.137 99.264 349.434 A 6.379 6.379 0 0 1 99.307 350.195 L 99.307 357.5 Z M 109.785 347.158 L 109.287 348.535 A 7.212 7.212 0 0 0 108.505 348.275 A 8.613 8.613 0 0 0 108.115 348.179 Q 107.572 348.057 107.136 348.04 A 3.593 3.593 0 0 0 106.992 348.037 Q 103.73 348.037 103.73 352.197 A 7.851 7.851 0 0 0 103.808 353.34 Q 103.979 354.499 104.526 355.224 A 2.575 2.575 0 0 0 106.194 356.221 A 3.922 3.922 0 0 0 106.885 356.279 A 6.786 6.786 0 0 0 108.757 356.007 A 8.379 8.379 0 0 0 109.629 355.703 L 109.629 357.139 A 4.611 4.611 0 0 1 108.501 357.538 Q 107.98 357.653 107.373 357.684 A 8.89 8.89 0 0 1 106.924 357.695 A 6.059 6.059 0 0 1 105.45 357.526 A 4.108 4.108 0 0 1 103.325 356.265 Q 102.224 355.029 102.074 352.908 A 9.802 9.802 0 0 1 102.051 352.217 A 8.945 8.945 0 0 1 102.189 350.59 Q 102.357 349.683 102.729 348.968 A 4.469 4.469 0 0 1 103.345 348.066 A 4.198 4.198 0 0 1 105.643 346.745 A 6.363 6.363 0 0 1 107.031 346.601 A 7.316 7.316 0 0 1 108.574 346.767 Q 109.337 346.932 109.775 347.153 A 2.415 2.415 0 0 1 109.785 347.158 Z M 84.014 347.978 A 4.555 4.555 0 0 0 83.131 348.058 Q 82.142 348.254 81.621 348.931 A 2.775 2.775 0 0 0 81.219 349.696 Q 80.948 350.455 80.899 351.61 A 12.49 12.49 0 0 0 80.889 352.139 A 10.719 10.719 0 0 0 80.942 353.246 Q 81.058 354.364 81.431 355.044 A 2.445 2.445 0 0 0 81.641 355.366 A 2.352 2.352 0 0 0 82.834 356.171 Q 83.365 356.338 84.053 356.338 Q 85.547 356.338 86.279 355.249 A 3.721 3.721 0 0 0 86.74 354.253 Q 86.884 353.78 86.952 353.207 A 9.289 9.289 0 0 0 87.012 352.119 A 9.578 9.578 0 0 0 86.954 351.028 Q 86.816 349.834 86.354 349.113 A 2.689 2.689 0 0 0 86.279 349.004 Q 85.547 347.978 84.014 347.978 Z M 97.686 353.203 L 97.686 352.236 L 96.064 352.305 Q 94.45 352.362 93.588 352.742 A 2.49 2.49 0 0 0 93.276 352.905 A 1.73 1.73 0 0 0 92.452 354.16 A 2.56 2.56 0 0 0 92.422 354.56 A 2.317 2.317 0 0 0 92.479 355.092 Q 92.575 355.5 92.833 355.781 A 1.444 1.444 0 0 0 92.954 355.898 A 1.765 1.765 0 0 0 93.615 356.249 Q 93.979 356.357 94.443 356.357 Q 95.957 356.357 96.821 355.527 Q 97.681 354.702 97.686 353.219 A 5.163 5.163 0 0 0 97.686 353.203 Z" id="back_labelLayer" stroke="#777777" fill="#777777" style="stroke:#777777;fill:#777777" vector-effect="non-scaling-stroke"/><path d="M 206 300 L 206 309.5 L 203 309.5 L 203 318.5 L 206 318.5 L 206 327.5 L 203 327.5 L 203 336.5 L 206 336.5 L 206 345.5 L 203 345.5 L 203 354.5 L 206 354.5 L 206 363.5 L 203 363.5 L 203 372.5 L 206 372.5 L 206 381.5 L 203 381.5 L 203 390.5 L 206 390.5 L 206 400 L 215.5 400 L 215.5 397 L 224.5 397 L 224.5 400 L 233.5 400 L 233.5 397 L 242.5 397 L 242.5 400 L 251.5 400 L 251.5 397 L 260.5 397 L 260.5 400 L 269.5 400 L 269.5 397 L 278.5 397 L 278.5 400 L 287.5 400 L 287.5 397 L 296.5 397 L 296.5 400 L 305.5 400 L 305.5 397 L 314.5 397 L 314.5 400 L 323.5 400 L 323.5 397 L 332.5 397 L 332.5 400 L 341.5 400 L 341.5 397 L 350.5 397 L 350.5 400 L 359.5 400 L 359.5 397 L 368.5 397 L 368.5 400 L 377.5 400 L 377.5 397 L 386.5 397 L 386.5 400 L 395.5 400 L 395.5 397 L 404.5 397 L 404.5 400 L 413.5 400 L 413.5 397 L 422.5 397 L 422.5 400 L 431.5 400 L 431.5 397 L 440.5 397 L 440.5 400 L 450 400 L 450 390.5 L 453 390.5 L 453 381.5 L 450 381.5 L 450 372.5 L 453 372.5 L 453 363.5 L 450 363.5 L 450 354.5 L 453 354.5 L 453 345.5 L 450 345.5 L 450 336.5 L 453 336.5 L 453 327.5 L 450 327.5 L 450 318.5 L 453 318.5 L 453 309.5 L 450 309.5 L 450 300 L 440.5 300 L 440.5 303 L 431.5 303 L 431.5 300 L 422.5 300 L 422.5 303 L 413.5 303 L 413.5 300 L 404.5 300 L 404.5 303 L 395.5 303 L 395.5 300 L 386.5 300 L 386.5 303 L 377.5 303 L 377.5 300 L 368.5 300 L 368.5 303 L 359.5 303 L 359.5 300 L 350.5 300 L 350.5 303 L 341.5 303 L 341.5 300 L 332.5 300 L 332.5 303 L 323.5 303 L 323.5 300 L 314.5 300 L 314.5 303 L 305.5 303 L 305.5 300 L 296.5 300 L 296.5 303 L 287.5 303 L 287.5 300 L 278.5 300 L 278.5 303 L 269.5 303 L 269.5 300 L 260.5 300 L 260.5 303 L 251.5 303 L 251.5 300 L 242.5 300 L 242.5 303 L 233.5 303 L 233.5 300 L 224.5 300 L 224.5 303 L 215.5 303 L 215.5 300 L 206 300 Z" id="right_outsideCutPath" stroke="#FF0000" stroke-width="0.1" style="stroke:#FF0000;stroke-width:0.1" vector-effect="non-scaling-stroke"/><path d="M 340.437 355.195 L 338.815 355.195 L 338.815 348.271 Q 338.815 347.437 338.573 346.873 A 1.928 1.928 0 0 0 338.22 346.318 A 1.828 1.828 0 0 0 337.47 345.84 Q 337.176 345.736 336.814 345.697 A 4.298 4.298 0 0 0 336.354 345.674 A 4.906 4.906 0 0 0 335.437 345.754 Q 334.929 345.851 334.537 346.065 A 2.27 2.27 0 0 0 333.889 346.592 Q 333.112 347.51 333.112 349.6 L 333.112 355.195 L 331.491 355.195 L 331.491 340 L 333.112 340 L 333.112 344.6 A 14.583 14.583 0 0 1 333.102 345.16 Q 333.092 345.422 333.072 345.648 A 6.341 6.341 0 0 1 333.034 345.977 L 333.132 345.977 A 3.239 3.239 0 0 1 334.267 344.884 A 3.957 3.957 0 0 1 334.494 344.761 A 4.162 4.162 0 0 1 335.86 344.356 A 5.261 5.261 0 0 1 336.511 344.316 Q 337.802 344.316 338.668 344.72 A 2.922 2.922 0 0 1 339.455 345.249 A 2.823 2.823 0 0 1 340.151 346.342 Q 340.318 346.797 340.388 347.361 A 7.01 7.01 0 0 1 340.437 348.213 L 340.437 355.195 Z M 325.593 344.492 L 329.294 344.492 L 329.294 345.518 L 327.312 345.752 Q 327.585 346.094 327.8 346.645 A 3.119 3.119 0 0 1 327.984 347.39 A 4.005 4.005 0 0 1 328.015 347.891 A 3.716 3.716 0 0 1 327.844 349.043 A 3.006 3.006 0 0 1 326.94 350.4 Q 325.973 351.245 324.355 351.329 A 7.041 7.041 0 0 1 323.991 351.338 Q 323.513 351.338 323.093 351.26 Q 322.502 351.572 322.248 351.976 A 1.22 1.22 0 0 0 322.058 352.637 A 0.84 0.84 0 0 0 322.1 352.912 Q 322.178 353.137 322.397 353.273 A 0.9 0.9 0 0 0 322.419 353.286 A 1.137 1.137 0 0 0 322.671 353.39 Q 323.034 353.496 323.659 353.496 L 325.554 353.496 A 6.636 6.636 0 0 1 326.561 353.568 Q 327.088 353.649 327.514 353.822 A 2.93 2.93 0 0 1 328.225 354.228 A 2.372 2.372 0 0 1 329.106 355.739 A 3.562 3.562 0 0 1 329.157 356.357 A 3.51 3.51 0 0 1 328.957 357.572 Q 328.633 358.456 327.787 359.031 A 3.856 3.856 0 0 1 327.731 359.067 Q 326.306 360 323.571 360 A 9.083 9.083 0 0 1 322.353 359.924 Q 321.116 359.756 320.334 359.219 A 2.584 2.584 0 0 1 319.501 358.315 Q 319.234 357.82 319.201 357.193 A 3.423 3.423 0 0 1 319.196 357.012 Q 319.196 356.035 319.821 355.322 A 2.831 2.831 0 0 1 320.794 354.614 A 4.012 4.012 0 0 1 321.579 354.355 A 1.682 1.682 0 0 1 320.926 353.827 A 1.998 1.998 0 0 1 320.891 353.779 A 1.503 1.503 0 0 1 320.615 352.967 A 1.862 1.862 0 0 1 320.612 352.871 A 1.854 1.854 0 0 1 320.706 352.274 A 1.643 1.643 0 0 1 320.925 351.846 A 2.32 2.32 0 0 1 321.231 351.5 Q 321.506 351.243 321.911 350.996 A 2.842 2.842 0 0 1 320.677 350.008 A 3.522 3.522 0 0 1 320.559 349.834 Q 320.036 349.014 320.036 347.959 A 4.684 4.684 0 0 1 320.159 346.851 A 3.081 3.081 0 0 1 321.091 345.249 A 3.443 3.443 0 0 1 322.412 344.52 Q 322.937 344.36 323.569 344.314 A 7.16 7.16 0 0 1 324.079 344.297 A 6.214 6.214 0 0 1 324.901 344.349 A 4.733 4.733 0 0 1 325.593 344.492 Z M 348.688 353.857 L 348.688 355.098 A 1.595 1.595 0 0 1 348.499 355.173 Q 348.298 355.24 348.009 355.291 A 6.063 6.063 0 0 1 347.912 355.308 Q 347.433 355.385 347.044 355.39 A 4.156 4.156 0 0 1 346.989 355.391 A 4.234 4.234 0 0 1 345.741 355.223 Q 344.37 354.799 344.011 353.309 A 5.096 5.096 0 0 1 343.884 352.119 L 343.884 345.752 L 342.351 345.752 L 342.351 344.971 L 343.884 344.297 L 344.567 342.012 L 345.505 342.012 L 345.505 344.492 L 348.61 344.492 L 348.61 345.752 L 345.505 345.752 L 345.505 352.051 A 3.264 3.264 0 0 0 345.552 352.624 Q 345.608 352.939 345.731 353.188 A 1.572 1.572 0 0 0 345.964 353.535 A 1.506 1.506 0 0 0 346.89 354.028 A 2.167 2.167 0 0 0 347.224 354.053 A 5.324 5.324 0 0 0 348.004 353.997 A 4.914 4.914 0 0 0 348.054 353.989 A 8.77 8.77 0 0 0 348.288 353.949 Q 348.511 353.907 348.667 353.864 A 2.43 2.43 0 0 0 348.688 353.857 Z M 313.474 344.414 L 313.249 345.918 A 7.145 7.145 0 0 0 312.735 345.823 Q 312.479 345.786 312.251 345.776 A 3.802 3.802 0 0 0 312.077 345.771 A 2.809 2.809 0 0 0 310.002 346.668 A 3.843 3.843 0 0 0 309.855 346.826 A 3.702 3.702 0 0 0 308.962 348.905 A 4.921 4.921 0 0 0 308.933 349.453 L 308.933 355.195 L 307.312 355.195 L 307.312 344.492 L 308.649 344.492 L 308.835 346.475 L 308.913 346.475 A 5.474 5.474 0 0 1 309.525 345.6 A 4.182 4.182 0 0 1 310.349 344.863 Q 311.188 344.297 312.194 344.297 A 7.442 7.442 0 0 1 312.861 344.325 A 5.432 5.432 0 0 1 313.474 344.414 Z M 317.097 344.492 L 317.097 355.195 L 315.476 355.195 L 315.476 344.492 L 317.097 344.492 Z M 325.036 354.951 L 323.093 354.951 Q 321.989 354.951 321.374 355.478 A 1.708 1.708 0 0 0 320.813 356.447 A 2.594 2.594 0 0 0 320.759 356.992 A 1.628 1.628 0 0 0 320.866 357.596 Q 321.02 357.985 321.396 358.248 A 1.902 1.902 0 0 0 321.491 358.31 A 2.596 2.596 0 0 0 322.13 358.584 Q 322.732 358.758 323.577 358.76 A 8.225 8.225 0 0 0 323.591 358.76 Q 325.414 358.76 326.392 358.273 A 2.692 2.692 0 0 0 326.613 358.149 A 2.365 2.365 0 0 0 327.162 357.69 A 1.772 1.772 0 0 0 327.595 356.494 A 2.193 2.193 0 0 0 327.555 356.059 Q 327.448 355.533 327.058 355.288 A 1.538 1.538 0 0 0 326.693 355.129 Q 326.304 355.009 325.69 354.97 A 10.315 10.315 0 0 0 325.036 354.951 Z M 321.999 349.303 A 1.734 1.734 0 0 0 322.272 349.619 A 2.095 2.095 0 0 0 323.116 350.077 Q 323.437 350.169 323.82 350.19 A 4.174 4.174 0 0 0 324.04 350.195 A 3.532 3.532 0 0 0 324.965 350.085 Q 326.023 349.797 326.308 348.759 A 3.283 3.283 0 0 0 326.413 347.891 A 3.486 3.486 0 0 0 326.294 346.936 Q 325.878 345.478 324.011 345.478 Q 323.135 345.478 322.569 345.84 A 1.866 1.866 0 0 0 322.253 346.094 Q 321.638 346.709 321.638 347.92 Q 321.638 348.767 321.999 349.303 Z M 315.362 341.295 A 1.796 1.796 0 0 0 315.339 341.592 Q 315.339 342.139 315.612 342.407 A 0.91 0.91 0 0 0 315.941 342.617 A 1.03 1.03 0 0 0 316.296 342.676 A 0.946 0.946 0 0 0 316.97 342.407 A 0.791 0.791 0 0 0 317.124 342.203 Q 317.253 341.96 317.253 341.592 A 1.854 1.854 0 0 0 317.245 341.416 Q 317.23 341.256 317.185 341.125 A 0.819 0.819 0 0 0 316.97 340.781 A 0.955 0.955 0 0 0 316.296 340.518 A 1.238 1.238 0 0 0 316.214 340.52 A 0.937 0.937 0 0 0 315.612 340.776 Q 315.418 340.96 315.362 341.295 Z" id="right_labelLayer" stroke="#777777" fill="#777777" style="stroke:#777777;fill:#777777" vector-effect="non-scaling-stroke"/><path d="M 459 3 L 459 12.5 L 456 12.5 L 456 21.5 L 459 21.5 L 459 30.5 L 456 30.5 L 456 39.5 L 459 39.5 L 459 48.5 L 456 48.5 L 456 57.5 L 459 57.5 L 459 66.5 L 456 66.5 L 456 75.5 L 459 75.5 L 459 84.5 L 456 84.5 L 456 93.5 L 459 93.5 L 459 102.5 L 456 102.5 L 456 111.5 L 459 111.5 L 459 120.5 L 456 120.5 L 456 129.5 L 459 129.5 L 459 138.5 L 456 138.5 L 456 147.5 L 459 147.5 L 459 156.5 L 456 156.5 L 456 165.5 L 459 165.5 L 459 174.5 L 456 174.5 L 456 183.5 L 459 183.5 L 459 192.5 L 456 192.5 L 456 201.5 L 459 201.5 L 459 210.5 L 456 210.5 L 456 219.5 L 459 219.5 L 459 228.5 L 456 228.5 L 456 237.5 L 459 237.5 L 459 247 L 470.5 247 L 470.5 250 L 479.5 250 L 479.5 247 L 488.5 247 L 488.5 250 L 497.5 250 L 497.5 247 L 506.5 247 L 506.5 250 L 515.5 250 L 515.5 247 L 524.5 247 L 524.5 250 L 533.5 250 L 533.5 247 L 542.5 247 L 542.5 250 L 551.5 250 L 551.5 247 L 560.5 247 L 560.5 250 L 569.5 250 L 569.5 247 L 578.5 247 L 578.5 250 L 587.5 250 L 587.5 247 L 596.5 247 L 596.5 250 L 605.5 250 L 605.5 247 L 614.5 247 L 614.5 250 L 623.5 250 L 623.5 247 L 632.5 247 L 632.5 250 L 641.5 250 L 641.5 247 L 650.5 247 L 653 247 L 653 237.5 L 656 237.5 L 656 228.5 L 653 228.5 L 653 219.5 L 656 219.5 L 656 210.5 L 653 210.5 L 653 201.5 L 656 201.5 L 656 192.5 L 653 192.5 L 653 183.5 L 656 183.5 L 656 174.5 L 653 174.5 L 653 165.5 L 656 165.5 L 656 156.5 L 653 156.5 L 653 147.5 L 656 147.5 L 656 138.5 L 653 138.5 L 653 129.5 L 656 129.5 L 656 120.5 L 653 120.5 L 653 111.5 L 656 111.5 L 656 102.5 L 653 102.5 L 653 93.5 L 656 93.5 L 656 84.5 L 653 84.5 L 653 75.5 L 656 75.5 L 656 66.5 L 653 66.5 L 653 57.5 L 656 57.5 L 656 48.5 L 653 48.5 L 653 39.5 L 656 39.5 L 656 30.5 L 653 30.5 L 653 21.5 L 656 21.5 L 656 12.5 L 653 12.5 L 653 3 L 641.5 3 L 641.5 0 L 632.5 0 L 632.5 3 L 623.5 3 L 623.5 0 L 614.5 0 L 614.5 3 L 605.5 3 L 605.5 0 L 596.5 0 L 596.5 3 L 587.5 3 L 587.5 0 L 578.5 0 L 578.5 3 L 569.5 3 L 569.5 0 L 560.5 0 L 560.5 3 L 551.5 3 L 551.5 0 L 542.5 0 L 542.5 3 L 533.5 3 L 533.5 0 L 524.5 0 L 524.5 3 L 515.5 3 L 515.5 0 L 506.5 0 L 506.5 3 L 497.5 3 L 497.5 0 L 488.5 0 L 488.5 3 L 479.5 3 L 479.5 0 L 470.5 0 L 470.5 3 L 461.5 3 L 459 3 Z" id="bottom_outsideCutPath" stroke="#FF0000" stroke-width="0.1" style="stroke:#FF0000;stroke-width:0.1" vector-effect="non-scaling-stroke"/><path d="M 621.801 139.999 L 618.558 139.999 L 618.558 126.074 Q 618.558 124.471 618.129 123.37 A 3.918 3.918 0 0 0 617.465 122.236 A 3.412 3.412 0 0 0 615.879 121.21 Q 615.093 120.957 614.066 120.957 A 8.343 8.343 0 0 0 612.368 121.118 Q 611.359 121.328 610.598 121.811 A 4.293 4.293 0 0 0 609.594 122.695 A 5.358 5.358 0 0 0 608.685 124.339 Q 608.152 125.833 608.148 128.013 A 17.968 17.968 0 0 0 608.148 128.046 L 608.148 139.999 L 604.906 139.999 L 604.906 126.074 Q 604.906 124.471 604.477 123.37 A 3.918 3.918 0 0 0 603.812 122.236 Q 602.719 120.957 600.394 120.957 A 8.053 8.053 0 0 0 598.729 121.117 Q 596.927 121.499 595.932 122.783 A 5.437 5.437 0 0 0 595.125 124.314 Q 594.603 125.793 594.528 128.01 A 22.573 22.573 0 0 0 594.516 128.769 L 594.516 139.999 L 591.273 139.999 L 591.273 118.593 L 593.91 118.593 L 594.437 121.523 L 594.594 121.523 Q 595.512 119.96 597.182 119.082 A 7.697 7.697 0 0 1 600.222 118.229 A 9.297 9.297 0 0 1 600.922 118.203 A 10.615 10.615 0 0 1 603.311 118.451 Q 604.781 118.791 605.806 119.596 A 5.535 5.535 0 0 1 607.484 121.835 L 607.641 121.835 Q 608.598 120.156 610.414 119.179 A 8.206 8.206 0 0 1 613.424 118.264 A 10.232 10.232 0 0 1 614.555 118.203 A 11.27 11.27 0 0 1 616.599 118.376 Q 617.735 118.586 618.622 119.05 A 5.343 5.343 0 0 1 619.994 120.068 A 5.583 5.583 0 0 1 621.193 122.029 Q 621.516 122.893 621.667 123.969 A 14.871 14.871 0 0 1 621.801 126.035 L 621.801 139.999 Z M 493.441 137.246 L 493.207 137.246 L 492.523 139.999 L 490.199 139.999 L 490.199 109.609 L 493.441 109.609 L 493.441 116.992 Q 493.441 119.392 493.295 121.317 A 40.448 40.448 0 0 1 493.285 121.445 L 493.441 121.445 A 7.371 7.371 0 0 1 498.822 118.32 A 11.073 11.073 0 0 1 500.16 118.242 A 9.909 9.909 0 0 1 502.949 118.614 A 7.418 7.418 0 0 1 506.713 121.123 Q 508.582 123.429 508.954 127.271 A 20.811 20.811 0 0 1 509.047 129.277 A 19.01 19.01 0 0 1 508.795 132.475 Q 508.277 135.506 506.693 137.47 A 7.675 7.675 0 0 1 501.238 140.339 A 10.996 10.996 0 0 1 500.16 140.39 Q 498.07 140.39 496.342 139.619 A 7.181 7.181 0 0 1 493.441 137.246 Z M 548.715 137.324 L 548.715 139.804 A 3.189 3.189 0 0 1 548.337 139.954 Q 547.867 140.11 547.162 140.224 Q 546.205 140.379 545.426 140.389 A 8.312 8.312 0 0 1 545.316 140.39 A 8.468 8.468 0 0 1 542.821 140.054 Q 540.078 139.208 539.36 136.228 A 10.191 10.191 0 0 1 539.105 133.847 L 539.105 121.113 L 536.039 121.113 L 536.039 119.55 L 539.105 118.203 L 540.473 113.632 L 542.348 113.632 L 542.348 118.593 L 548.558 118.593 L 548.558 121.113 L 542.348 121.113 L 542.348 133.71 A 6.529 6.529 0 0 0 542.442 134.857 Q 542.554 135.486 542.801 135.984 A 3.145 3.145 0 0 0 543.266 136.679 Q 544.183 137.714 545.785 137.714 A 10.648 10.648 0 0 0 547.345 137.603 A 9.812 9.812 0 0 0 547.445 137.587 Q 548.209 137.466 548.671 137.336 A 4.868 4.868 0 0 0 548.715 137.324 Z M 562.836 137.324 L 562.836 139.804 A 3.189 3.189 0 0 1 562.458 139.954 Q 561.988 140.11 561.283 140.224 Q 560.326 140.379 559.547 140.389 A 8.312 8.312 0 0 1 559.437 140.39 A 8.468 8.468 0 0 1 556.942 140.054 Q 554.199 139.208 553.481 136.228 A 10.191 10.191 0 0 1 553.226 133.847 L 553.226 121.113 L 550.16 121.113 L 550.16 119.55 L 553.226 118.203 L 554.594 113.632 L 556.469 113.632 L 556.469 118.593 L 562.68 118.593 L 562.68 121.113 L 556.469 121.113 L 556.469 133.71 A 6.529 6.529 0 0 0 556.563 134.857 Q 556.675 135.486 556.922 135.984 A 3.145 3.145 0 0 0 557.387 136.679 Q 558.305 137.714 559.906 137.714 A 10.648 10.648 0 0 0 561.466 137.603 A 9.812 9.812 0 0 0 561.566 137.587 Q 562.331 137.466 562.792 137.336 A 4.868 4.868 0 0 0 562.836 137.324 Z M 532.89 132.535 A 16.747 16.747 0 0 0 533.187 129.277 A 19.028 19.028 0 0 0 533.181 128.762 Q 533.132 126.98 532.746 125.467 A 10.096 10.096 0 0 0 530.541 121.191 Q 527.894 118.203 523.402 118.203 Q 518.754 118.203 516.137 121.123 Q 514.399 123.062 513.815 126.021 A 16.834 16.834 0 0 0 513.519 129.277 A 16.219 16.219 0 0 0 513.723 131.904 A 11.994 11.994 0 0 0 514.73 135.175 A 10.656 10.656 0 0 0 514.966 135.637 A 8.777 8.777 0 0 0 518.168 139.042 A 9.028 9.028 0 0 0 520.24 139.964 A 10.412 10.412 0 0 0 523.266 140.39 A 12.59 12.59 0 0 0 525.464 140.206 A 8.644 8.644 0 0 0 530.551 137.451 A 9.044 9.044 0 0 0 531.628 135.971 Q 532.506 134.468 532.89 132.535 Z M 585.292 132.535 A 16.747 16.747 0 0 0 585.59 129.277 A 19.028 19.028 0 0 0 585.583 128.762 Q 585.535 126.98 585.149 125.467 A 10.096 10.096 0 0 0 582.943 121.191 Q 580.297 118.203 575.805 118.203 Q 571.156 118.203 568.539 121.123 Q 566.801 123.062 566.217 126.021 A 16.834 16.834 0 0 0 565.922 129.277 A 16.219 16.219 0 0 0 566.125 131.904 A 11.994 11.994 0 0 0 567.133 135.175 A 10.656 10.656 0 0 0 567.369 135.637 A 8.777 8.777 0 0 0 570.57 139.042 A 9.028 9.028 0 0 0 572.642 139.964 A 10.412 10.412 0 0 0 575.668 140.39 A 12.59 12.59 0 0 0 577.866 140.206 A 8.644 8.644 0 0 0 582.953 137.451 A 9.044 9.044 0 0 0 584.03 135.971 Q 584.908 134.468 585.292 132.535 Z M 516.879 129.277 A 16.418 16.418 0 0 0 517.035 131.622 Q 517.207 132.813 517.57 133.777 A 6.802 6.802 0 0 0 518.519 135.527 A 5.314 5.314 0 0 0 521.98 137.565 A 8.052 8.052 0 0 0 523.344 137.675 A 7.531 7.531 0 0 0 525.33 137.428 A 5.241 5.241 0 0 0 528.178 135.537 A 6.96 6.96 0 0 0 529.261 133.426 Q 529.58 132.45 529.72 131.259 A 17.078 17.078 0 0 0 529.828 129.277 A 16.177 16.177 0 0 0 529.675 126.972 Q 529.325 124.549 528.178 123.076 Q 526.527 120.957 523.305 120.957 A 7.716 7.716 0 0 0 521.384 121.182 A 5.164 5.164 0 0 0 518.5 123.046 Q 516.879 125.136 516.879 129.277 Z M 569.281 129.277 A 16.418 16.418 0 0 0 569.437 131.622 Q 569.61 132.813 569.972 133.777 A 6.802 6.802 0 0 0 570.922 135.527 A 5.314 5.314 0 0 0 574.383 137.565 A 8.052 8.052 0 0 0 575.746 137.675 A 7.531 7.531 0 0 0 577.733 137.428 A 5.241 5.241 0 0 0 580.58 135.537 A 6.96 6.96 0 0 0 581.664 133.426 Q 581.982 132.45 582.122 131.259 A 17.078 17.078 0 0 0 582.23 129.277 A 16.177 16.177 0 0 0 582.077 126.972 Q 581.728 124.549 580.58 123.076 Q 578.93 120.957 575.707 120.957 A 7.716 7.716 0 0 0 573.786 121.182 A 5.164 5.164 0 0 0 570.902 123.046 Q 569.281 125.136 569.281 129.277 Z M 499.691 120.957 A 9.111 9.111 0 0 0 497.927 121.116 Q 496.922 121.314 496.158 121.761 A 4.312 4.312 0 0 0 494.906 122.861 A 5.55 5.55 0 0 0 494.103 124.391 Q 493.441 126.246 493.441 129.277 Q 493.441 133.109 494.526 135.088 A 4.89 4.89 0 0 0 494.945 135.732 A 4.704 4.704 0 0 0 497.331 137.342 Q 498.395 137.675 499.769 137.675 A 6.463 6.463 0 0 0 501.605 137.43 A 4.663 4.663 0 0 0 504.223 135.498 Q 505.269 133.942 505.568 131.414 A 18.577 18.577 0 0 0 505.687 129.238 A 19.155 19.155 0 0 0 505.572 127.055 Q 505.275 124.481 504.223 123.007 A 4.728 4.728 0 0 0 501.212 121.102 A 7.499 7.499 0 0 0 499.691 120.957 Z" id="bottom_labelLayer" stroke="#777777" fill="#777777" style="stroke:#777777;fill:#777777" vector-effect="non-scaling-stroke"/></g></svg>